<svg xmlns="http://www.w3.org/2000/svg" width="165" height="201" fill="none" class="canon-logo-mark"><path fill="#00635B" d="M84.192.7v200.095c-.569.103-.796.205-.91.205-.454-.102-24.665-4.297-54.445-32.326C-1.171 140.337.76 104.328.76 104.328V18.192S33.724.085 84.191.7Z"/><path fill="#00B388" d="M136.902 168.761C110.305 193.824 88.14 199.977 83.366 201V.684c23.87.307 51.604 4.808 81.612 17.39v86.341s1.818 36.009-28.076 64.346Z"/><path fill="#fff" fill-rule="evenodd" d="m84.187 16.044.34 11.662-16.14.204c-9.434 9.412-20.232 16.47-32.394 21.278l-.455 14.834 8.639 7.365c11.593-3.99 23.415-3.785 35.463.819l-42.397 39.691c14.89 5.32 30.462 8.593 46.262 9.821 12.958 1.023 26.029.614 38.873-1.125 19.778-39.692 4.32-83.578-38.191-104.55Zm31.485 108.845a178.13 178.13 0 0 1-18.073.921c-4.774 0-9.548-.205-14.322-.511-7.274-.512-14.549-1.535-21.596-2.967-3.75-.512-7.274-1.125-10.684-1.739-1.023 2.966-2.046 5.933-2.956 8.9 3.865 1.432 6.593 4.603 7.275 8.286 9.548 1.534 19.096 2.353 28.87 2.353 9.435 0 18.869-.716 28.076-2.148.341-3.581 2.955-6.65 6.593-7.98-1.137-1.841-2.16-3.478-3.183-5.115Zm1.023 15.141c-10.798 1.943-21.71 2.966-32.736 2.966-10.911 0-21.71-.921-32.394-2.864-.455 0-.796-.102-1.25-.102l-10.912 8.49v6.752c28.416 3.171 58.65 3.274 87.067.205l.228-7.57-10.003-7.877Z" clip-rule="evenodd"/><path fill="#00635B" d="M84.185 16.044c8.07 4.705 14.094 11.56 19.664 18.618C116.352 50.825 119.989 72 114.76 91.028c-1.136 4.092-2.727 8.389-4.773 12.174-.91 1.944-2.046 3.887-3.297 5.729 2.387-8.286 3.979-16.47 4.433-24.654.91-23.631-7.615-51.559-26.938-68.233ZM68.273 40.595c2.274 3.785 6.82 4.297 10.23 1.433-.227 1.023-1.023 2.046-2.046 2.66-3.296 2.148-8.638-.41-8.184-4.093Z"/></svg>