<?xml version="1.0" encoding="utf-8"?>
<!-- Generator: Adobe Illustrator 27.4.1, SVG Export Plug-In . SVG Version: 6.00 Build 0)  -->
<svg version="1.1" id="Layer_1" xmlns="http://www.w3.org/2000/svg" xmlns:xlink="http://www.w3.org/1999/xlink" x="0px" y="0px"
	 viewBox="0 0 500 346.8" style="enable-background:new 0 0 500 346.8;" xml:space="preserve">
<style type="text/css">
	.st0{fill:#FFFFFF;}
</style>
<g>
	<path class="st0" d="M46.5,272.5c-0.5-0.5-1.5-0.6-2.1,0c-3.6,2.9-8,4.9-13.1,4.9c-11,0-19.2-9.1-19.2-19.8c0-10.8,8.1-20,19.1-20
		c4.8,0,9.6,1.9,13.2,5.1c0.7,0.7,1.5,0.7,2.1,0l5.2-5.4c0.7-0.7,0.7-1.7-0.1-2.4c-5.8-5.2-12.1-8-20.7-8
		C13.8,226.9,0,240.7,0,257.8c0,17.1,13.8,30.7,30.9,30.7c7.6,0,15-2.7,20.8-8.3c0.6-0.6,0.8-1.7,0.1-2.3L46.5,272.5z"/>
	<path class="st0" d="M110.4,285.5L84,227.9c-0.3-0.5-0.6-0.9-1.5-0.9h-0.9c-0.8,0-1.2,0.4-1.5,0.9l-26.6,57.6
		c-0.5,1.1,0.2,2.2,1.5,2.2h7.5c1.4,0,2.1-0.9,2.5-1.7l4.2-9.2h25.6L99,286c0.6,1.2,1.2,1.7,2.5,1.7h7.5
		C110.2,287.7,110.9,286.6,110.4,285.5z M73.4,267.3l8.4-18.8H82l8.6,18.8H73.4z"/>
	<path class="st0" d="M117.8,287.7h7.8c0.9,0,1.6-0.8,1.6-1.6v-36.8h0.2l35.1,38.7c0.4,0.4,0.9,0.6,1.5,0.6h1.2
		c0.9,0,1.6-0.7,1.6-1.5v-57.6c0-0.9-0.8-1.6-1.6-1.6h-7.9c-0.9,0-1.6,0.8-1.6,1.6v35.4h-0.2l-34.9-37.3c-0.4-0.4-0.9-0.6-1.5-0.6
		h-1.3c-0.9,0-1.6,0.7-1.6,1.5v57.6C116.2,286.9,117,287.7,117.8,287.7z"/>
	<path class="st0" d="M237.7,257.8c0-17.1-13.7-30.9-30.8-30.9c-17.1,0-30.7,13.8-30.7,30.9c0,17.1,13.6,30.7,30.7,30.7
		C224,288.6,237.7,275,237.7,257.8z M206.9,277.4c-10.8,0-19.6-8.8-19.6-19.6c0-10.8,8.8-19.8,19.6-19.8c10.8,0,19.7,9,19.7,19.8
		C226.6,268.6,217.7,277.4,206.9,277.4z"/>
	<path class="st0" d="M296.1,227.8h-7.9c-0.9,0-1.6,0.8-1.6,1.6v35.4h-0.2l-34.9-37.3c-0.4-0.4-0.9-0.6-1.5-0.6h-1.3
		c-0.9,0-1.6,0.7-1.6,1.5v57.6c0,0.9,0.8,1.6,1.6,1.6h7.8c0.9,0,1.6-0.8,1.6-1.6v-36.8h0.2l35.1,38.7c0.4,0.4,0.9,0.6,1.5,0.6h1.2
		c0.9,0,1.6-0.7,1.6-1.5v-57.6C297.7,228.5,296.9,227.8,296.1,227.8z"/>
	<path class="st0" d="M373.2,285.2l-11.7-21.8c7.5-3,12.7-9.4,12.7-17.3c0-10.2-8.4-18.4-18.7-18.4H331c-0.9,0-1.6,0.8-1.6,1.6v56.7
		c0,0.9,0.7,1.6,1.6,1.6h7.9c0.9,0,1.6-0.8,1.6-1.6v-21.8h9.5l11.4,22.7c0.2,0.3,0.6,0.8,1.4,0.8h9
		C373.2,287.7,373.8,286.4,373.2,285.2z M354.6,255.1h-14v-17h14c4.5,0,8.5,3.8,8.5,8.3C363,251.2,359.1,255.1,354.6,255.1z"/>
	<path class="st0" d="M393.8,227.8h-8c-0.9,0-1.6,0.8-1.6,1.6v56.7c0,0.9,0.8,1.6,1.6,1.6h8c0.9,0,1.6-0.8,1.6-1.6v-56.7
		C395.4,228.5,394.6,227.8,393.8,227.8z"/>
	<path class="st0" d="M426.4,252.3c-6.9-2.8-10.1-5.6-10.1-9.6c0-3.3,2.7-6,7.5-6c4.7,0,8.2,2.4,11.9,4.7c1,0.7,2.3,0,3-1l3.3-4.9
		c0.6-0.9,0.3-2.3-0.5-2.8c-1.7-1.3-8.4-5.7-17.1-5.7c-13.6,0-19.3,8.8-19.3,16.4c0,10.1,8,15.2,16.1,18.5
		c7.2,2.9,10.9,5.9,10.9,10.3c0,3.7-3.3,6.6-7.8,6.6c-5.6,0-9.4-2.7-12.9-5.3c-0.8-0.6-2.2-0.6-2.9,0.6l-3.1,5.3
		c-0.8,1.4-0.4,1.9,0.4,2.6c2.5,2.1,8,6.7,18.8,6.7c12.1,0,19.7-8.1,19.7-17C444.3,260.6,434.7,255.6,426.4,252.3z"/>
	<path class="st0" d="M499.6,284.7l-24-28.7l22.4-25.2c1.1-1.3,0.3-3.1-1.4-3.1h-8.6c-0.8,0-1.3,0.4-1.6,0.9L464.9,253v-23.1
		c0-1.1-0.9-2.1-2.1-2.1h-7.5c-1.2,0-2.1,0.9-2.1,2.1v55.8c0,1.1,0.9,2.1,2.1,2.1h7.5c1.1,0,2.1-0.9,2.1-2.1v-26.1l22.4,27.6
		c0.2,0.3,0.7,0.6,1.5,0.6h9.3C499.8,287.7,500.5,285.8,499.6,284.7z"/>
	<path class="st0" d="M88.8,317.3c4.1,0,6.7,2,8.6,5.6l2.8-2.1c-2-4.1-5.6-7-11.4-7c-8.1,0-14,5.8-14,16.5c0,10.9,6,16.5,14,16.5
		c4.9,0,8.7-2.2,11.3-6.7l-2.9-2.1c-2.2,3.6-4.9,5.2-8.5,5.2c-6,0-10.1-4.4-10.1-13C78.7,321.7,82.8,317.3,88.8,317.3z"/>
	<path class="st0" d="M122.3,313.7c-7.9,0-13.5,5.7-13.5,16.6c0,10.8,5.6,16.5,13.5,16.5c8,0,13.7-5.7,13.7-16.5
		C135.9,319.4,130.3,313.7,122.3,313.7z M122.3,343.2c-5.8,0-9.7-4.4-9.7-12.9c0-8.6,4-13,9.7-13c5.8,0,9.9,4.4,9.9,13
		C132.1,338.8,128.1,343.2,122.3,343.2z"/>
	<polygon class="st0" points="166.9,339.4 150.5,314.3 146.7,314.3 146.7,346.2 150.5,346.2 150.5,321.3 167.2,346.2 170.8,346.2 
		170.8,314.3 166.9,314.3 	"/>
	<path class="st0" d="M199.7,329.4c-3.6-1.4-8.2-1.7-11.1-2.8c-1.9-0.8-3.2-2.1-3.2-4.1c0-3,2.8-5.1,7.3-5.1c4.3,0,7.2,1.9,9,4
		l2.7-2.4c-1.8-2.4-5.5-5.1-11.5-5.1c-7.1,0-11.2,3.7-11.2,8.7c0,3.3,1.7,5.4,5.2,6.8c3.6,1.4,7.9,1.7,10.9,2.9
		c2.2,0.8,3.6,2.1,3.6,4.6c0,4-3.7,6.1-8.6,6.1c-4.7,0-8.2-2-10.5-4.7l-2.9,2.3c2.5,3.3,6.9,5.8,13.1,5.8c7,0,12.6-3.2,12.6-9.6
		C205.2,332.8,202.8,330.6,199.7,329.4z"/>
	<path class="st0" d="M234.1,334.2c0,5.7-3.6,8.7-8,8.7c-4.4,0-8-2.9-8-8.7v-19.9h-3.8v19.9c0,8.2,5.3,12.2,11.8,12.2
		c6.5,0,11.8-4.1,11.8-12.2v-19.9h-3.8V334.2z"/>
	<polygon class="st0" points="252.9,314.3 249.1,314.3 249.1,346.2 269.7,346.2 269.7,342.6 252.9,342.6 	"/>
	<polygon class="st0" points="272.7,317.9 282.5,317.9 282.5,346.2 286.3,346.2 286.3,317.9 296.1,317.9 296.1,314.3 272.7,314.3 	
		"/>
	<path class="st0" d="M311.7,314.3l-12.3,31.9h4.1l2.7-7.2h15.2l2.8,7.2h4.1l-12.4-31.9H311.7z M307.5,335.5l6.3-16.8l6.4,16.8
		H307.5z"/>
	<polygon class="st0" points="357,339.4 340.6,314.3 336.8,314.3 336.8,346.2 340.6,346.2 340.6,321.3 357.2,346.2 360.8,346.2 
		360.8,314.3 357,314.3 	"/>
	<polygon class="st0" points="369.4,317.9 379.3,317.9 379.3,346.2 383.1,346.2 383.1,317.9 392.9,317.9 392.9,314.3 369.4,314.3 	
		"/>
	<path class="st0" d="M418,329.4c-3.6-1.4-8.2-1.7-11.1-2.8c-1.9-0.8-3.2-2.1-3.2-4.1c0-3,2.8-5.1,7.3-5.1c4.3,0,7.2,1.9,9,4
		l2.7-2.4c-1.8-2.4-5.5-5.1-11.5-5.1c-7.1,0-11.2,3.7-11.2,8.7c0,3.3,1.7,5.4,5.2,6.8c3.6,1.4,7.9,1.7,10.9,2.9
		c2.2,0.8,3.6,2.1,3.6,4.6c0,4-3.7,6.1-8.6,6.1c-4.7,0-8.2-2-10.5-4.7l-2.9,2.3c2.5,3.3,6.9,5.8,13.1,5.8c7,0,12.6-3.2,12.6-9.6
		C423.5,332.8,421.1,330.6,418,329.4z"/>
	<path class="st0" d="M236.8,39c-0.4,3.6,4.3,6.1,7.2,4c0.9-0.6,1.6-1.6,1.8-2.6C242.8,43.2,238.8,42.7,236.8,39z"/>
	<path class="st0" d="M322.6,101.4V17.1C296.2,4.7,271.8,0.3,250.8,0v0c-44.4-0.7-73.4,17-73.4,17v84.4c0,0-1.6,35.2,24.7,62.9
		c26.1,27.4,47.4,31.5,47.9,31.6v0h0v0c0.1,0,0.3-0.1,0.8-0.2v0c4.1-1,23.7-6.9,47-31.4C324.2,136.6,322.6,101.4,322.6,101.4z
		 M288,151.3c-12.1,1.4-24.6,2.1-37.2,2.1c-13.3,0-26.6-0.8-39.5-2.4v-6.6l9.6-8.3c0.4,0,0.7,0.1,1.1,0.1c9.4,1.9,18.9,2.8,28.5,2.8
		h0c0.1,0,0.1,0,0.2,0l0,0c0,0,0,0,0,0c0,0,0,0,0,0l0,0c9.6,0,19.2-1,28.6-2.9l8.8,7.7L288,151.3z M250.8,121.8
		C250.8,121.8,250.8,121.8,250.8,121.8L250.8,121.8c3.9,0.3,7.8,0.5,11.8,0.5c5.3,0,10.6-0.3,15.9-0.9c0.9,1.6,1.8,3.2,2.7,4.8
		c-3.3,1.3-5.5,4.3-5.8,7.8c-8.1,1.4-16.3,2.1-24.5,2.1l0,0c-0.1,0-0.1,0-0.2,0c0,0,0,0,0,0c-8.5,0-17-0.8-25.4-2.3
		c-0.6-3.6-3-6.7-6.4-8.1c0.9-2.9,1.8-5.8,2.6-8.7c3,0.6,6.1,1.2,9.4,1.7c0,0,0,0,0,0c6.3,1.4,12.6,2.3,19,2.9
		C250.2,121.7,250.5,121.7,250.8,121.8L250.8,121.8C250.8,121.8,250.8,121.8,250.8,121.8z M284.4,117.1c-11.1,1.7-22.4,2.1-33.6,1.2
		l0,0c-0.2,0-0.4,0-0.6,0c-14-1.2-27.7-4.4-40.7-9.6l37.3-38.8c-10.6-4.4-20.9-4.7-31.2-0.8l-7.6-7.2l0.3-14.5
		c10.7-4.7,20.2-11.6,28.5-20.8l13.9-0.1v0l0.3,0l-0.3-11l0,0l0-0.4c0,0,0,0,0,0c17,16.3,24.5,43.6,23.7,66.6
		c-0.4,8-1.7,16.1-3.9,24.1c1.1-1.8,2.1-3.6,2.9-5.6c1.7-3.7,3.2-8,4.2-11.9c4.5-18.6,1.3-39.3-9.6-55.1
		c-4.8-6.8-10.2-13.6-17.3-18.2C288.2,35.5,301.8,78.4,284.4,117.1z"/>
</g>
</svg>
