<svg width="165" height="201" viewBox="0 0 165 201" fill="none" xmlns="http://www.w3.org/2000/svg">
<path d="M84.1917 0.699281V200.795C83.6234 200.898 83.396 201 83.2824 201C82.8277 200.898 58.617 196.703 28.8368 168.674C-1.17081 140.337 0.761481 104.328 0.761481 104.328V18.1923C0.761481 18.1923 33.7244 0.0854889 84.1917 0.699281Z" fill="#00635B"/>
<path d="M136.902 168.761C110.305 193.824 88.1401 199.977 83.3662 201V0.684021C107.236 0.990917 134.97 5.49205 164.978 18.0748V104.415C164.978 104.415 166.796 140.424 136.902 168.761Z" fill="#00B388"/>
<path fill-rule="evenodd" clip-rule="evenodd" d="M84.1868 16.0436L84.5278 27.7057L68.3873 27.9102C58.9531 37.3217 48.1549 44.3803 35.9927 49.1884L35.5381 64.0217L44.1766 71.3872C55.7705 67.3975 67.5917 67.6021 79.6402 72.2055L37.2431 111.897C52.1332 117.217 67.7053 120.49 83.5048 121.718C96.4626 122.741 109.534 122.332 122.378 120.593C142.156 80.9009 126.698 37.0148 84.1868 16.0436ZM115.672 124.889C109.648 125.503 103.623 125.81 97.5992 125.81C92.8253 125.81 88.0514 125.605 83.2774 125.299C76.0029 124.787 68.7283 123.764 61.6811 122.332C57.9301 121.82 54.4065 121.207 50.9965 120.593C49.9736 123.559 48.9506 126.526 48.0412 129.493C51.9059 130.925 54.6338 134.096 55.3158 137.779C64.8637 139.313 74.4116 140.132 84.1868 140.132C93.621 140.132 103.055 139.416 112.262 137.984C112.603 134.403 115.217 131.334 118.855 130.004C117.718 128.163 116.695 126.526 115.672 124.889ZM116.695 140.03C105.897 141.973 94.9849 142.996 83.9594 142.996C73.0476 142.996 62.2494 142.075 51.5649 140.132C51.1102 140.132 50.7692 140.03 50.3146 140.03L39.4027 148.52V155.272C67.819 158.443 98.0539 158.546 126.47 155.477L126.698 147.907L116.695 140.03Z" fill="white"/>
<path d="M84.1846 16.0436C92.2548 20.7493 98.279 27.6033 103.849 34.6619C116.352 50.8251 119.989 72.0009 114.76 91.0285C113.624 95.1204 112.033 99.4169 109.987 103.202C109.077 105.146 107.941 107.089 106.69 108.931C109.077 100.645 110.669 92.4606 111.123 84.2767C112.033 60.6458 103.508 32.7183 84.1846 16.0436Z" fill="#00635B"/>
<path d="M68.2733 40.5954C70.5466 44.3805 75.0932 44.892 78.5032 42.0276C78.2759 43.0506 77.4802 44.0736 76.4572 44.6874C73.1609 46.8356 67.8187 44.2782 68.2733 40.5954Z" fill="#00635B"/>
</svg>
