<?xml version="1.0" encoding="utf-8"?>
<!-- Generator: Adobe Illustrator 27.4.1, SVG Export Plug-In . SVG Version: 6.00 Build 0)  -->
<svg version="1.1" id="Layer_1" xmlns="http://www.w3.org/2000/svg" xmlns:xlink="http://www.w3.org/1999/xlink" x="0px" y="0px"
	 viewBox="0 0 500 346.8" style="enable-background:new 0 0 500 346.8;" xml:space="preserve">
<style type="text/css">
	.st0{fill:#00635B;}
	.st1{fill:#00B388;}
	.st2{fill-rule:evenodd;clip-rule:evenodd;fill:#FFFFFF;}
</style>
<g>
	<path class="st0" d="M250.8,0v195.6c-0.5,0.1-0.7,0.2-0.8,0.2v0h0v0c-0.4-0.1-21.7-4.2-47.9-31.6c-26.4-27.7-24.7-62.9-24.7-62.9
		V17.1C177.4,17.1,206.4-0.6,250.8,0z"/>
	<g>
		<path class="st0" d="M30.9,226.9c8.6,0,14.9,2.7,20.7,8c0.8,0.7,0.8,1.7,0.1,2.4l-5.2,5.4c-0.6,0.7-1.5,0.7-2.1,0
			c-3.6-3.2-8.4-5.1-13.2-5.1c-11,0-19.1,9.2-19.1,20c0,10.7,8.2,19.8,19.2,19.8c5.1,0,9.5-2,13.1-4.9c0.7-0.6,1.6-0.5,2.1,0
			l5.3,5.5c0.7,0.6,0.5,1.7-0.1,2.3c-5.8,5.7-13.2,8.3-20.8,8.3C13.8,288.6,0,275,0,257.8S13.8,226.9,30.9,226.9z"/>
		<path class="st0" d="M53.6,285.5l26.6-57.6c0.3-0.5,0.7-0.9,1.5-0.9h0.9c0.9,0,1.2,0.4,1.5,0.9l26.4,57.6c0.5,1.1-0.2,2.2-1.5,2.2
			h-7.5c-1.3,0-1.9-0.5-2.5-1.7l-4.2-9.2H69.2L65,286c-0.3,0.9-1.1,1.7-2.5,1.7h-7.5C53.8,287.7,53.1,286.6,53.6,285.5z M90.6,267.3
			L82,248.4h-0.3l-8.4,18.8H90.6z"/>
		<path class="st0" d="M116.2,228.5c0-0.9,0.8-1.5,1.6-1.5h1.3c0.6,0,1,0.2,1.5,0.6l34.9,37.3h0.2v-35.4c0-0.9,0.7-1.6,1.6-1.6h7.9
			c0.9,0,1.6,0.8,1.6,1.6V287c0,0.9-0.8,1.5-1.6,1.5H164c-0.6,0-1-0.2-1.5-0.6l-35.1-38.7h-0.2v36.8c0,0.9-0.7,1.6-1.6,1.6h-7.8
			c-0.9,0-1.6-0.8-1.6-1.6V228.5z"/>
		<path class="st0" d="M206.9,226.9c17.1,0,30.8,13.8,30.8,30.9s-13.7,30.7-30.8,30.7s-30.7-13.6-30.7-30.7S189.8,226.9,206.9,226.9
			z M206.9,277.4c10.8,0,19.7-8.8,19.7-19.6c0-10.8-8.9-19.8-19.7-19.8c-10.8,0-19.6,9-19.6,19.8
			C187.3,268.6,196.1,277.4,206.9,277.4z"/>
		<path class="st0" d="M247.1,228.5c0-0.9,0.8-1.5,1.6-1.5h1.3c0.6,0,1,0.2,1.5,0.6l34.9,37.3h0.2v-35.4c0-0.9,0.7-1.6,1.6-1.6h7.9
			c0.9,0,1.6,0.8,1.6,1.6V287c0,0.9-0.8,1.5-1.6,1.5h-1.2c-0.6,0-1-0.2-1.5-0.6l-35.1-38.7h-0.2v36.8c0,0.9-0.7,1.6-1.6,1.6h-7.8
			c-0.9,0-1.6-0.8-1.6-1.6V228.5z"/>
		<path class="st0" d="M329.4,229.4c0-0.9,0.7-1.6,1.6-1.6h24.5c10.3,0,18.7,8.2,18.7,18.4c0,7.9-5.2,14.3-12.7,17.3l11.7,21.8
			c0.6,1.1,0,2.5-1.5,2.5h-9c-0.8,0-1.2-0.4-1.4-0.8L350,264.3h-9.5v21.8c0,0.9-0.8,1.6-1.6,1.6H331c-0.9,0-1.6-0.8-1.6-1.6V229.4z
			 M354.6,255.1c4.5,0,8.5-3.9,8.5-8.7c0-4.5-3.9-8.3-8.5-8.3h-14v17H354.6z"/>
		<path class="st0" d="M384.2,229.4c0-0.9,0.8-1.6,1.6-1.6h8c0.9,0,1.6,0.8,1.6,1.6v56.7c0,0.9-0.8,1.6-1.6,1.6h-8
			c-0.9,0-1.6-0.8-1.6-1.6V229.4z"/>
		<path class="st0" d="M405.8,281.9c-0.9-0.7-1.2-1.2-0.4-2.6l3.1-5.3c0.7-1.2,2.1-1.2,2.9-0.6c3.5,2.7,7.4,5.3,12.9,5.3
			c4.5,0,7.8-2.9,7.8-6.6c0-4.4-3.7-7.4-10.9-10.3c-8.1-3.3-16.1-8.4-16.1-18.5c0-7.6,5.7-16.4,19.3-16.4c8.7,0,15.4,4.5,17.1,5.7
			c0.9,0.5,1.1,2,0.5,2.8l-3.3,4.9c-0.7,1-2,1.7-3,1c-3.7-2.3-7.2-4.7-11.9-4.7c-4.9,0-7.5,2.7-7.5,6c0,4,3.2,6.8,10.1,9.6
			c8.3,3.3,17.9,8.3,17.9,19.4c0,8.8-7.6,17-19.7,17C413.8,288.6,408.3,284,405.8,281.9z"/>
		<path class="st0" d="M453.2,229.8c0-1.1,0.9-2.1,2.1-2.1h7.5c1.1,0,2.1,0.9,2.1,2.1V253l21.6-24.3c0.3-0.4,0.9-0.9,1.6-0.9h8.6
			c1.6,0,2.5,1.8,1.4,3.1L475.7,256l24,28.7c0.9,1.1,0.2,3-1.5,3h-9.3c-0.9,0-1.4-0.3-1.5-0.6l-22.4-27.6v26.1
			c0,1.1-0.9,2.1-2.1,2.1h-7.5c-1.2,0-2.1-0.9-2.1-2.1V229.8z"/>
		<path class="st1" d="M97.4,322.9c-1.9-3.5-4.5-5.6-8.6-5.6c-6,0-10.2,4.4-10.2,12.9c0,8.6,4.1,13,10.1,13c3.6,0,6.3-1.6,8.5-5.2
			l2.9,2.1c-2.7,4.5-6.4,6.7-11.3,6.7c-8,0-14-5.7-14-16.5c0-10.8,5.9-16.5,14-16.5c5.8,0,9.4,2.9,11.4,7L97.4,322.9z"/>
		<path class="st1" d="M135.9,330.3c0,10.8-5.7,16.5-13.7,16.5c-7.9,0-13.5-5.7-13.5-16.5c0-10.9,5.6-16.6,13.5-16.6
			C130.3,313.7,135.9,319.4,135.9,330.3z M112.6,330.3c0,8.5,4,12.9,9.7,12.9c5.8,0,9.9-4.4,9.9-12.9c0-8.6-4-13-9.9-13
			C116.5,317.3,112.6,321.7,112.6,330.3z"/>
		<path class="st1" d="M150.5,314.3l16.4,25.1v-25.1h3.8v31.9h-3.6l-16.7-24.9v24.9h-3.8v-31.9H150.5z"/>
		<path class="st1" d="M182.4,338.4c2.2,2.7,5.8,4.7,10.5,4.7c4.9,0,8.6-2.2,8.6-6.1c0-2.5-1.4-3.8-3.6-4.6c-3-1.2-7.3-1.4-10.9-2.9
			c-3.5-1.4-5.2-3.5-5.2-6.8c0-5.1,4.1-8.7,11.2-8.7c6,0,9.7,2.6,11.5,5.1l-2.7,2.4c-1.8-2.1-4.7-4-9-4c-4.6,0-7.3,2.1-7.3,5.1
			c0,2,1.2,3.3,3.2,4.1c2.9,1.2,7.5,1.4,11.1,2.8c3.1,1.2,5.5,3.4,5.5,7.6c0,6.4-5.5,9.6-12.6,9.6c-6.2,0-10.6-2.5-13.1-5.8
			L182.4,338.4z"/>
		<path class="st1" d="M218.1,314.3v19.9c0,5.7,3.5,8.7,8,8.7c4.4,0,8-2.9,8-8.7v-19.9h3.8v19.9c0,8.2-5.3,12.2-11.8,12.2
			c-6.5,0-11.8-4.1-11.8-12.2v-19.9H218.1z"/>
		<path class="st1" d="M252.9,314.3v28.3h16.8v3.6h-20.6v-31.9H252.9z"/>
		<path class="st1" d="M296.1,314.3v3.6h-9.8v28.3h-3.8v-28.3h-9.9v-3.6H296.1z"/>
		<path class="st1" d="M315.8,314.3l12.4,31.9h-4.1l-2.8-7.2h-15.2l-2.7,7.2h-4.1l12.3-31.9H315.8z M307.5,335.5h12.6l-6.4-16.8
			L307.5,335.5z"/>
		<path class="st1" d="M340.6,314.3l16.4,25.1v-25.1h3.8v31.9h-3.6l-16.7-24.9v24.9h-3.8v-31.9H340.6z"/>
		<path class="st1" d="M392.9,314.3v3.6h-9.8v28.3h-3.8v-28.3h-9.9v-3.6H392.9z"/>
		<path class="st1" d="M400.7,338.4c2.2,2.7,5.8,4.7,10.5,4.7c4.9,0,8.6-2.2,8.6-6.1c0-2.5-1.4-3.8-3.6-4.6c-3-1.2-7.3-1.4-10.9-2.9
			c-3.5-1.4-5.2-3.5-5.2-6.8c0-5.1,4.1-8.7,11.2-8.7c6,0,9.7,2.6,11.5,5.1l-2.7,2.4c-1.8-2.1-4.7-4-9-4c-4.6,0-7.3,2.1-7.3,5.1
			c0,2,1.2,3.3,3.2,4.1c2.9,1.2,7.5,1.4,11.1,2.8c3.1,1.2,5.5,3.4,5.5,7.6c0,6.4-5.5,9.6-12.6,9.6c-6.2,0-10.6-2.5-13.1-5.8
			L400.7,338.4z"/>
	</g>
	<path class="st1" d="M297.9,164.3c-23.4,24.5-42.9,30.4-47.1,31.4V0c21,0.3,45.4,4.7,71.8,17v84.4
		C322.6,101.4,324.2,136.6,297.9,164.3z"/>
	<g>
		<g>
			<g>
				<path class="st2" d="M250.8,15l0.3,11.4l-14.2,0.2c-8.3,9.2-17.8,16.1-28.5,20.8L208,61.9l7.6,7.2c10.2-3.9,20.6-3.7,31.2,0.8
					l-37.3,38.8c13.1,5.2,26.8,8.4,40.7,9.6c11.4,1,22.9,0.6,34.2-1.1C301.8,78.4,288.2,35.5,250.8,15z M278.5,121.4
					c-5.3,0.6-10.6,0.9-15.9,0.9c-4.2,0-8.4-0.2-12.6-0.5c-6.4-0.5-12.8-1.5-19-2.9c0,0,0,0,0,0c-3.3-0.5-6.4-1.1-9.4-1.7
					c-0.9,2.9-1.8,5.8-2.6,8.7c3.4,1.4,5.8,4.5,6.4,8.1c8.4,1.5,16.8,2.3,25.4,2.3c0,0,0,0,0,0c8.3,0,16.6-0.7,24.7-2.1
					c0.3-3.5,2.6-6.5,5.8-7.8C280.3,124.6,279.4,123,278.5,121.4z M279.4,136.2c-9.5,1.9-19.1,2.9-28.8,2.9h0
					c-9.6,0-19.1-0.9-28.5-2.8c-0.4,0-0.7-0.1-1.1-0.1l-9.6,8.3v6.6c25,3.1,51.6,3.2,76.6,0.2l0.2-7.4L279.4,136.2z"/>
			</g>
		</g>
		<path class="st0" d="M250.8,15c7.1,4.6,12.4,11.3,17.3,18.2c11,15.8,14.2,36.5,9.6,55.1c-1,4-2.4,8.2-4.2,11.9
			c-0.8,1.9-1.8,3.8-2.9,5.6c2.1-8.1,3.5-16.1,3.9-24.1C275.3,58.6,267.8,31.3,250.8,15L250.8,15z"/>
		<path class="st0" d="M236.8,39c2,3.7,6,4.2,9,1.4c-0.2,1-0.9,2-1.8,2.6C241.1,45.1,236.4,42.6,236.8,39L236.8,39z"/>
	</g>
</g>
</svg>
