<svg width="33" height="49" viewBox="0 0 33 49" fill="none" xmlns="http://www.w3.org/2000/svg">
<path fill-rule="evenodd" clip-rule="evenodd" d="M16.8261 3.05176e-05L16.944 4.03357L11.3615 4.10433C8.09852 7.35947 4.36377 9.80082 0.15725 11.4638L0 16.5941L2.98781 19.1416C6.99776 17.7617 11.0863 17.8325 15.2535 19.4247L0.589698 33.1529C5.73973 34.9927 11.1256 36.1249 16.5902 36.5495C21.0719 36.9034 25.5929 36.7618 30.0353 36.1603C36.8758 22.4322 31.5292 7.25332 16.8261 3.05176e-05ZM27.7158 37.6464C25.6322 37.8587 23.5486 37.9648 21.465 37.9648C19.8139 37.9648 18.1627 37.894 16.5116 37.7879C13.9955 37.611 11.4795 37.2572 9.04204 36.7618C7.7447 36.5849 6.526 36.3726 5.3466 36.1603C4.99278 37.1864 4.63896 38.2125 4.32445 39.2386C5.6611 39.7339 6.60462 40.8307 6.8405 42.1045C10.1428 42.6352 13.4451 42.9183 16.8261 42.9183C20.0891 42.9183 23.3521 42.6706 26.5364 42.1753C26.6544 40.9369 27.5586 39.8754 28.8166 39.4155C28.4235 38.7786 28.0696 38.2125 27.7158 37.6464ZM28.0696 42.8829C24.3349 43.5551 20.5608 43.909 16.7474 43.909C12.9734 43.909 9.23861 43.5905 5.54317 42.9183C5.38591 42.9183 5.26797 42.8829 5.11072 42.8829L1.33665 45.8196V48.1548C11.165 49.2516 21.6223 49.287 31.4506 48.2256L31.5292 45.6073L28.0696 42.8829Z" fill="#00635B"/>
<path d="M16.8262 0C19.6174 1.62757 21.701 3.99816 23.6274 6.43951C27.9518 12.0298 29.2098 19.3539 27.4014 25.9349C27.0083 27.3502 26.4579 28.8362 25.7503 30.1454C25.4358 30.8176 25.0426 31.4899 24.6102 32.1268C25.4358 29.2608 25.9862 26.4303 26.1434 23.5997C26.4579 15.4265 23.5094 5.76725 16.8262 0Z" fill="#00B388"/>
<path d="M11.3219 8.49171C12.1082 9.80084 13.6807 9.97775 14.8601 8.98706C14.7815 9.34088 14.5063 9.6947 14.1525 9.90699C13.0124 10.65 11.1647 9.76546 11.3219 8.49171Z" fill="#00B388"/>
</svg>
