<svg width="62" height="75" viewBox="0 0 62 75" fill="none" xmlns="http://www.w3.org/2000/svg">
<path d="M31.2464 0.0057133V74.9234C31.0336 74.9617 30.9485 75 30.9059 75C30.7357 74.9617 21.671 73.3913 10.521 62.8967C-0.714049 52.2872 0.00941756 38.8051 0.00941756 38.8051V6.55527C0.00941756 6.55527 12.351 -0.224096 31.2464 0.0057133Z" fill="#00635B"/>
<path d="M50.9819 62.9293C41.0236 72.3132 32.7249 74.617 30.9375 75V0C39.8745 0.114904 50.2585 1.80017 61.4936 6.51125V38.8377C61.4936 38.8377 62.1745 52.3198 50.9819 62.9293Z" fill="#00635B"/>
<path fill-rule="evenodd" clip-rule="evenodd" d="M30.9998 23.4395C34.7985 23.4395 37.8766 26.5124 37.8766 30.3027C37.8766 34.0929 34.7985 37.1659 30.9998 37.1659C27.2021 37.1659 24.123 34.0929 24.123 30.3027C24.123 26.5124 27.2021 23.4395 30.9998 23.4395Z" fill="white"/>
<path fill-rule="evenodd" clip-rule="evenodd" d="M31.0008 38.3777C36.2746 38.3777 40.7911 42.1432 42.6696 47.4858C39.6491 50.3985 35.5361 52.1902 31.0008 52.1902C26.4655 52.1902 22.3526 50.3985 19.332 47.4858C21.2106 42.1432 25.727 38.3777 31.0008 38.3777Z" fill="white"/>
<path fill-rule="evenodd" clip-rule="evenodd" d="M46.4316 23C49.5463 23 52.0702 25.5199 52.0702 28.6275C52.0702 31.7351 49.5463 34.255 46.4316 34.255C43.3178 34.255 40.793 31.7351 40.793 28.6275C40.793 25.5199 43.3178 23 46.4316 23Z" fill="white"/>
<path fill-rule="evenodd" clip-rule="evenodd" d="M46.4323 35.2495C50.7575 35.2495 54.46 38.3363 56.0005 42.7172C53.5242 45.1056 50.1518 46.5748 46.4323 46.5748C45.784 46.5748 45.1466 46.5302 44.5221 46.4432C43.3949 43.4414 41.4639 40.7919 38.9707 38.9517C40.8512 36.6702 43.499 35.2495 46.4323 35.2495Z" fill="white"/>
<path fill-rule="evenodd" clip-rule="evenodd" d="M15.5683 23C18.683 23 21.2069 25.5199 21.2069 28.6275C21.2069 31.7351 18.683 34.255 15.5683 34.255C12.4546 34.255 9.92969 31.7351 9.92969 28.6275C9.92969 25.5199 12.4546 23 15.5683 23Z" fill="white"/>
<path fill-rule="evenodd" clip-rule="evenodd" d="M15.5682 35.2495C18.5015 35.2495 21.1483 36.6712 23.0298 38.9527C20.5367 40.7929 18.6066 43.4424 17.4794 46.4432C16.8549 46.5302 16.2165 46.5748 15.5682 46.5748C11.8498 46.5748 8.4773 45.1056 6 42.7172C7.54051 38.3363 11.2441 35.2495 15.5682 35.2495Z" fill="white"/>
</svg>
