<svg width="38" height="46" viewBox="0 0 38 46" fill="none" xmlns="http://www.w3.org/2000/svg">
<path d="M18.8181 0.00344084V45.1226C18.69 45.1457 18.6387 45.1687 18.6131 45.1687C18.5106 45.1457 13.0514 44.1999 6.3363 37.8796C-0.430036 31.49 0.00567172 23.3704 0.00567172 23.3704V3.94791C0.00567172 3.94791 7.43839 -0.134962 18.8181 0.00344084Z" fill="#00635B"/>
<path d="M30.8901 37.9026C24.8927 43.554 19.8948 44.915 18.8184 45.1457V0.00341797C24.2007 0.0726192 30.4544 1.08757 37.2207 3.92482V23.3934C37.2207 23.3934 37.6308 31.513 30.8901 37.9026Z" fill="#00B388"/>
<path fill-rule="evenodd" clip-rule="evenodd" d="M18.8183 3.46338L18.8952 6.09302L15.2557 6.13916C13.1284 8.26133 10.6936 9.85295 7.95115 10.9371L7.84863 14.2818L9.79652 15.9427C12.4108 15.043 15.0763 15.0892 17.7931 16.1272L8.23308 25.0772C11.5906 26.2767 15.1019 27.0148 18.6645 27.2917C21.5863 27.5223 24.5338 27.4301 27.43 27.0379C31.8896 18.0879 28.4039 8.19213 18.8183 3.46338ZM25.9178 28.0067C24.5594 28.1451 23.201 28.2143 21.8427 28.2143C20.7662 28.2143 19.6897 28.1682 18.6133 28.099C16.9729 27.9837 15.3326 27.753 13.7435 27.4301C12.8978 27.3147 12.1032 27.1763 11.3343 27.0379C11.1037 27.7069 10.873 28.3758 10.6679 29.0447C11.5394 29.3677 12.1545 30.0828 12.3083 30.9132C14.4612 31.2592 16.6141 31.4437 18.8183 31.4437C20.9456 31.4437 23.0729 31.2823 25.1489 30.9593C25.2258 30.152 25.8153 29.46 26.6355 29.1601C26.3792 28.7449 26.1485 28.3758 25.9178 28.0067ZM26.1485 31.4207C23.7136 31.8589 21.2532 32.0896 18.767 32.0896C16.3066 32.0896 13.8717 31.882 11.4625 31.4437C11.36 31.4437 11.2831 31.4207 11.1805 31.4207L8.72005 33.3352V34.8576C15.1276 35.5727 21.9452 35.5958 28.3527 34.9038L28.4039 33.1968L26.1485 31.4207Z" fill="white"/>
<path d="M18.8184 3.46338C20.6381 4.52446 21.9965 6.06996 23.2524 7.66158C26.0717 11.3062 26.8918 16.0811 25.7128 20.3715C25.4565 21.2942 25.0977 22.263 24.6364 23.1165C24.4313 23.5548 24.175 23.9931 23.8931 24.4083C24.4313 22.5398 24.7902 20.6945 24.8927 18.8491C25.0977 13.5206 23.1755 7.22331 18.8184 3.46338Z" fill="#00635B"/>
<path d="M15.2303 8.99951C15.7429 9.85299 16.7681 9.96833 17.537 9.32245C17.4857 9.55312 17.3063 9.78379 17.0756 9.92219C16.3324 10.4066 15.1277 9.82993 15.2303 8.99951Z" fill="#00635B"/>
</svg>
