<svg width="62" height="75" viewBox="0 0 62 75" fill="none" xmlns="http://www.w3.org/2000/svg">
<path d="M31.2464 0.0057133V74.9234C31.0336 74.9617 30.9485 75 30.9059 75C30.7357 74.9617 21.671 73.3913 10.521 62.8967C-0.714049 52.2872 0.00941756 38.8051 0.00941756 38.8051V6.55527C0.00941756 6.55527 12.351 -0.224096 31.2464 0.0057133Z" fill="#00635B"/>
<path d="M50.9819 62.9293C41.0236 72.3132 32.7249 74.617 30.9375 75V0C39.8745 0.114904 50.2585 1.80017 61.4936 6.51125V38.8377C61.4936 38.8377 62.1745 52.3198 50.9819 62.9293Z" fill="#00635B"/>
<g clip-path="url(#clip0_55_2979)">
<path d="M33.8468 14.5009V13.5834C33.8468 13.1107 33.3185 12.8327 32.9571 13.1107L30.3713 14.8068C30.0377 15.0292 30.0377 15.5296 30.3713 15.7799L32.9293 17.5037C33.3185 17.7539 33.819 17.4759 33.819 17.031V16.1691C39.046 16.5306 43.2165 20.8957 43.2165 26.234C43.2165 26.6789 43.578 27.0403 44.0227 27.0403C44.4678 27.0403 44.8293 26.6789 44.8293 26.234C44.857 19.9782 39.9635 14.8624 33.8468 14.5009Z" fill="white"/>
<path d="M35.9329 36.6325L33.375 34.9087C32.9857 34.6584 32.4853 34.9365 32.4853 35.3813V36.2432C27.2582 35.8818 23.0877 31.5167 23.0877 26.1784C23.0877 25.7335 22.7262 25.3721 22.2814 25.3721C21.8365 25.3721 21.4473 25.7613 21.4473 26.2062C21.4473 32.4342 26.3129 37.5222 32.4575 37.8837V38.8012C32.4575 39.2738 32.9857 39.5519 33.3472 39.2738L35.9329 37.6056C36.2666 37.3554 36.2666 36.8549 35.9329 36.6325Z" fill="white"/>
<path d="M33.151 18.7271C29.0083 18.7271 25.6719 22.0635 25.6719 26.2062C25.6719 30.3489 29.0083 33.6854 33.151 33.6854C37.2938 33.6854 40.6303 30.3489 40.6303 26.2062C40.6303 22.0635 37.2938 18.7271 33.151 18.7271ZM33.8183 29.7094V30.5157C33.8183 30.6548 33.7071 30.766 33.5681 30.766H32.734C32.595 30.766 32.4838 30.6548 32.4838 30.5157V29.7373C31.6218 29.6538 30.9267 28.9588 30.8433 28.0969C30.8433 28.0412 30.8711 27.9578 30.8989 27.9022C30.9546 27.8466 31.0102 27.8188 31.0936 27.8188H31.9555C32.0667 27.8188 32.1779 27.9022 32.2057 28.0134C32.2613 28.2359 32.4559 28.4027 32.7062 28.4027H33.4291C33.8461 28.4027 34.2076 28.0969 34.2354 27.7354C34.2632 27.513 34.1797 27.3183 34.0407 27.1515C33.9017 26.9847 33.6793 26.9013 33.4847 26.9013H32.9286C31.8165 26.9013 30.8433 26.0672 30.7321 25.0107C30.6209 23.8985 31.3994 22.8976 32.4838 22.7308V21.9523C32.4838 21.8133 32.595 21.702 32.734 21.702H33.5681C33.7071 21.702 33.8183 21.8133 33.8183 21.9523V22.7308C34.6802 22.8142 35.3753 23.5093 35.4587 24.3712C35.4587 24.4268 35.4309 24.5102 35.4031 24.5658C35.3475 24.6214 35.2919 24.6492 35.2085 24.6492H34.3466C34.2354 24.6492 34.1242 24.5658 34.0963 24.4546C34.0407 24.2321 33.8461 24.0653 33.5959 24.0653H32.873C32.4559 24.0653 32.0945 24.3712 32.0667 24.7326C32.0389 24.955 32.1223 25.1497 32.2613 25.3165C32.4003 25.4833 32.6228 25.5667 32.8174 25.5667H33.4569C34.0407 25.5667 34.6246 25.8169 35.0139 26.2618C35.4309 26.7067 35.5977 27.2906 35.5421 27.9022C35.4865 28.7641 34.7636 29.5148 33.8183 29.7094Z" fill="white"/>
<path d="M19.6653 56.0237L13.5704 45.467L11 46.951L17.0949 57.5077L19.6653 56.0237Z" fill="white"/>
<path d="M50.5695 45.996C50.2012 44.8833 48.9762 44.2654 47.8637 44.6334L38.9826 47.6131C38.7244 48.0364 38.358 48.4308 37.9125 48.6881C37.3298 49.0244 36.6285 49.1552 35.9653 49.0352L25.8999 47.3518C25.7035 47.328 25.5307 47.1079 25.5886 46.8916C25.6123 46.6952 25.8324 46.5224 26.0486 46.5802L36.1338 48.2983C36.6348 48.3744 37.1252 48.2742 37.5707 48.0169C37.9477 47.7994 38.2311 47.4986 38.4208 47.1148C38.4985 46.9328 38.5762 46.751 38.6144 46.5003C38.7051 45.9454 38.5994 45.3664 38.2539 44.9262C37.9425 44.4663 37.4454 44.1592 36.8705 44.0341L25.0858 42.0636C23.563 41.8003 22.0034 42.1065 20.6668 42.8781L14.875 46.2221L19.6639 54.5166L21.4802 53.468C22.0286 53.1514 22.6416 53.0261 23.2797 53.0232C24.1341 53.0782 24.9449 53.2957 25.6781 53.6949C26.1753 54.002 26.6816 54.1666 27.1484 54.2628C28.956 54.5444 30.7478 54.561 32.5182 54.2244C33.5531 54.0381 34.5629 53.7293 35.5476 53.298L49.2415 48.6821C49.364 48.6572 49.5011 48.5779 49.6382 48.4989C50.4951 48.004 50.8929 46.952 50.5695 45.996Z" fill="white"/>
</g>
<defs>
<clipPath id="clip0_55_2979">
<rect width="40.4694" height="50" fill="white" transform="translate(11 13)"/>
</clipPath>
</defs>
</svg>
