<svg width="62" height="75" viewBox="0 0 62 75" fill="none" xmlns="http://www.w3.org/2000/svg">
<path d="M31.2464 0.0057133V74.9234C31.0336 74.9617 30.9485 75 30.9059 75C30.7357 74.9617 21.671 73.3913 10.521 62.8967C-0.714049 52.2872 0.00941756 38.8051 0.00941756 38.8051V6.55527C0.00941756 6.55527 12.351 -0.224096 31.2464 0.0057133Z" fill="#00635B"/>
<path d="M50.9819 62.9293C41.0236 72.3132 32.7249 74.617 30.9375 75V0C39.8745 0.114904 50.2585 1.80017 61.4936 6.51125V38.8377C61.4936 38.8377 62.1745 52.3198 50.9819 62.9293Z" fill="#00635B"/>
<path d="M41.6924 33.6385V17.4231H33.2078C33.2155 17.5154 33.2308 17.6077 33.2308 17.7V19.9231H22.4616V17.7C22.4616 17.6077 22.477 17.5154 22.4846 17.4231H14V53.0002H41.6924V51.4694C40.7693 50.7925 40.0078 50.1155 39.3847 49.4001V50.6925H16.3077V21.4616H39.3847V34.1539C40.0847 33.9539 40.8616 33.777 41.6924 33.6385Z" fill="white"/>
<path d="M30.1536 15.3958V15.3077C30.1536 14.0332 29.1204 13 27.8459 13C26.5713 13 25.5382 14.0332 25.5382 15.3077V15.3958C24.2636 15.3958 23.2305 16.4289 23.2305 17.7035V19.1539H32.4613V17.7035C32.4613 16.4289 31.4281 15.3958 30.1536 15.3958Z" fill="white"/>
<path d="M36.9839 35.0233C37.4378 34.8079 37.9839 34.5925 38.6147 34.3848V22.231H17.0762V49.9234H38.6147V48.408C36.6839 45.531 36.5455 41.9156 36.5378 35.7233V35.2387L36.9839 35.0233ZM24.3839 27.231H26.307V25.3079H29.3839V27.231H31.307V30.3079H29.3839V32.231H26.307V30.3079H24.3839V27.231ZM35.5378 47.231H20.1531V46.4618H35.5378V47.231ZM35.5378 44.1541H20.1531V43.3849H35.5378V44.1541ZM35.5378 41.0772H20.1531V40.3079H35.5378V41.0772ZM35.5378 38.0002H20.1531V37.231H35.5378V38.0002Z" fill="white"/>
<path d="M45.6548 34.0615C42.2086 34.0615 39.0624 34.9 37.3086 35.7231C37.324 45.877 37.6471 48.6923 45.6548 53.0001C53.6625 48.6923 53.9856 45.877 54.001 35.7231C52.2471 34.9 49.1009 34.0615 45.6548 34.0615ZM46.0359 51.0311L45.6551 51.249L45.2742 51.0311C39.5028 47.7401 38.904 45.491 38.8522 37.3021L38.8484 36.7387L39.3841 36.5651C40.4944 36.2045 42.7855 35.5998 45.6551 35.5998C48.5239 35.5998 50.8151 36.2045 51.9254 36.5651L52.461 36.7387L52.4573 37.3013C52.4062 45.4903 51.8074 47.7387 46.0359 51.0311Z" fill="white"/>
<path d="M45.6548 36.3691C43.2938 36.3691 41.1483 36.8011 39.6211 37.2965C39.6714 45.2195 40.1559 47.2271 45.6548 50.3633C51.1536 47.2267 51.6381 45.2191 51.6878 37.2965C50.1605 36.8011 48.0151 36.3691 45.6548 36.3691ZM45.126 44.2996L43.0196 42.1932L43.5634 41.6494L45.126 43.2119L48.0076 40.3303L48.5514 40.8742L45.126 44.2996Z" fill="white"/>
</svg>
