<svg width="413" height="500" viewBox="0 0 413 500" fill="none" xmlns="http://www.w3.org/2000/svg">
<g opacity="0.5">
<mask id="mask0_32_6638" style="mask-type:alpha" maskUnits="userSpaceOnUse" x="0" y="0" width="413" height="500">
<path d="M208.309 0.0380887V499.489C206.891 499.745 206.323 500 206.04 500C204.905 499.745 144.474 489.276 70.1403 419.312C-4.76033 348.581 0.0627837 258.701 0.0627837 258.701V43.7018C0.0627837 43.7018 82.34 -1.49397 208.309 0.0380887Z" fill="#00635B"/>
<path d="M341.942 419.567C275.553 482.126 220.229 497.191 208.312 499.744V0.0378418C267.893 0.803871 337.119 12.039 412.02 43.4462V258.956C412.02 258.956 416.559 348.837 341.942 419.567Z" fill="#00635B"/>
</mask>
<g mask="url(#mask0_32_6638)">
<path d="M403.25 92.5636V114.48C403.194 114.491 403.171 114.503 403.16 114.503C403.114 114.491 400.701 114.032 397.733 110.962C394.742 107.858 394.934 103.914 394.934 103.914V94.4796C394.934 94.4796 398.22 92.4963 403.25 92.5636Z" fill="#00B388"/>
<path d="M408.586 110.973C405.935 113.718 403.726 114.379 403.25 114.491V92.5636C405.629 92.5972 408.394 93.0902 411.385 94.4684V103.925C411.385 103.925 411.566 107.869 408.586 110.973Z" fill="#00B388"/>
<path d="M403.25 195.41V217.327C403.194 217.338 403.171 217.349 403.16 217.349C403.114 217.338 400.701 216.879 397.733 213.808C394.742 210.705 394.934 206.761 394.934 206.761V197.326C394.934 197.326 398.22 195.343 403.25 195.41Z" fill="#00B388"/>
<path d="M408.586 213.82C405.935 216.565 403.726 217.226 403.25 217.338V195.41C405.629 195.444 408.394 195.937 411.385 197.315V206.772C411.385 206.772 411.566 210.716 408.586 213.82Z" fill="#00B388"/>
<path d="M397.076 298.257V320.173C397.02 320.185 396.997 320.196 396.986 320.196C396.94 320.185 394.527 319.725 391.559 316.655C388.568 313.551 388.76 309.607 388.76 309.607V300.173C388.76 300.173 392.046 298.19 397.076 298.257Z" fill="#00B388"/>
<path d="M402.412 316.666C399.761 319.412 397.552 320.073 397.076 320.185V298.257C399.455 298.291 402.22 298.784 405.211 300.162V309.619C405.211 309.619 405.392 313.563 402.412 316.666Z" fill="#00B388"/>
<path d="M407.365 407.274V429.191C407.309 429.202 407.286 429.213 407.275 429.213C407.229 429.202 404.816 428.743 401.848 425.673C398.857 422.569 399.049 418.625 399.049 418.625V409.19C399.049 409.19 402.335 407.207 407.365 407.274Z" fill="#00B388"/>
<path d="M412.702 425.684C410.05 428.429 407.841 429.09 407.365 429.202V407.274C409.744 407.308 412.509 407.801 415.5 409.179V418.636C415.5 418.636 415.681 422.58 412.702 425.684Z" fill="#00B388"/>
<path d="M205.785 0.00167138V21.9182C205.729 21.9294 205.706 21.9406 205.695 21.9406C205.649 21.9294 203.236 21.47 200.268 18.3999C197.277 15.2962 197.469 11.3521 197.469 11.3521V1.91769C197.469 1.91769 200.755 -0.0655573 205.785 0.00167138Z" fill="#00B388"/>
<path d="M211.121 18.4112C208.47 21.1563 206.261 21.8174 205.785 21.9295V0.00170898C208.164 0.0353233 210.929 0.528333 213.92 1.90652V11.3633C213.92 11.3633 214.101 15.3074 211.121 18.4112Z" fill="#00B388"/>
<path d="M206.471 119.304V141.22C206.414 141.231 206.392 141.243 206.38 141.243C206.335 141.231 203.922 140.772 200.953 137.702C197.962 134.598 198.155 130.654 198.155 130.654V121.22C198.155 121.22 201.44 119.236 206.471 119.304Z" fill="#00B388"/>
<path d="M211.807 137.713C209.156 140.458 206.947 141.119 206.471 141.231V119.304C208.85 119.337 211.614 119.83 214.605 121.209V130.665C214.605 130.665 214.787 134.609 211.807 137.713Z" fill="#00B388"/>
<path d="M205.785 238.606V260.522C205.729 260.534 205.706 260.545 205.695 260.545C205.649 260.534 203.236 260.074 200.268 257.004C197.277 253.9 197.469 249.956 197.469 249.956V240.522C197.469 240.522 200.755 238.539 205.785 238.606Z" fill="#00B388"/>
<path d="M211.121 257.015C208.47 259.761 206.261 260.422 205.785 260.534V238.606C208.164 238.64 210.929 239.133 213.92 240.511V249.968C213.92 249.968 214.101 253.912 211.121 257.015Z" fill="#00B388"/>
<path d="M206.471 357.908V379.824C206.414 379.836 206.392 379.847 206.38 379.847C206.335 379.836 203.922 379.376 200.953 376.306C197.962 373.202 198.155 369.258 198.155 369.258V359.824C198.155 359.824 201.44 357.841 206.471 357.908Z" fill="#00B388"/>
<path d="M211.807 376.317C209.156 379.063 206.947 379.724 206.471 379.836V357.908C208.85 357.942 211.614 358.435 214.605 359.813V369.27C214.605 369.27 214.787 373.214 211.807 376.317Z" fill="#00B388"/>
<path d="M206.471 477.21V499.127C206.414 499.138 206.392 499.149 206.38 499.149C206.335 499.138 203.922 498.678 200.953 495.608C197.962 492.505 198.155 488.56 198.155 488.56V479.126C198.155 479.126 201.44 477.143 206.471 477.21Z" fill="#00B388"/>
<path d="M211.807 495.62C209.156 498.365 206.947 499.026 206.471 499.138V477.21C208.85 477.244 211.614 477.737 214.605 479.115V488.572C214.605 488.572 214.787 492.516 211.807 495.62Z" fill="#00B388"/>
<path d="M139.961 58.967V80.8835C139.904 80.8947 139.882 80.906 139.87 80.906C139.825 80.8947 137.412 80.4353 134.444 77.3652C131.452 74.2615 131.645 70.3174 131.645 70.3174V60.883C131.645 60.883 134.931 58.8998 139.961 58.967Z" fill="#00B388"/>
<path d="M145.297 77.3765C142.646 80.1217 140.437 80.7827 139.961 80.8948V58.967C142.34 59.0007 145.105 59.4937 148.096 60.8719V70.3287C148.096 70.3287 148.277 74.2728 145.297 77.3765Z" fill="#00B388"/>
<path d="M139.961 168.67V190.587C139.904 190.598 139.882 190.609 139.87 190.609C139.825 190.598 137.412 190.138 134.444 187.068C131.452 183.965 131.645 180.021 131.645 180.021V170.586C131.645 170.586 134.931 168.603 139.961 168.67Z" fill="#00B388"/>
<path d="M145.297 187.08C142.646 189.825 140.437 190.486 139.961 190.598V168.67C142.34 168.704 145.105 169.197 148.096 170.575V180.032C148.096 180.032 148.277 183.976 145.297 187.08Z" fill="#00B388"/>
<path d="M142.02 278.373V300.29C141.963 300.301 141.94 300.312 141.929 300.312C141.884 300.301 139.47 299.842 136.502 296.772C133.511 293.668 133.704 289.724 133.704 289.724V280.289C133.704 280.289 136.989 278.306 142.02 278.373Z" fill="#00B388"/>
<path d="M147.356 296.783C144.705 299.528 142.495 300.189 142.02 300.301V278.373C144.399 278.407 147.163 278.9 150.154 280.278V289.735C150.154 289.735 150.336 293.679 147.356 296.783Z" fill="#00B388"/>
<path d="M205.785 417.559V439.476C205.729 439.487 205.706 439.498 205.695 439.498C205.649 439.487 203.236 439.027 200.268 435.957C197.277 432.854 197.469 428.909 197.469 428.909V419.475C197.469 419.475 200.755 417.492 205.785 417.559Z" fill="#00B388"/>
<path d="M211.121 435.969C208.47 438.714 206.261 439.375 205.785 439.487V417.559C208.164 417.593 210.929 418.086 213.92 419.464V428.921C213.92 428.921 214.101 432.865 211.121 435.969Z" fill="#00B388"/>
<path d="M73.4533 18.514V40.4305C73.3966 40.4417 73.374 40.4529 73.3626 40.4529C73.3173 40.4417 70.9041 39.9823 67.9357 36.9122C64.9447 33.8085 65.1373 29.8644 65.1373 29.8644V20.43C65.1373 20.43 68.4229 18.4468 73.4533 18.514Z" fill="#00B388"/>
<path d="M78.7894 36.9234C76.1383 39.6685 73.929 40.3296 73.4531 40.4417V18.5139C75.8324 18.5475 78.5968 19.0405 81.5879 20.4187V29.8756C81.5879 29.8756 81.7691 33.8196 78.7894 36.9234Z" fill="#00B388"/>
<path d="M74.1408 129.588V151.505C74.0841 151.516 74.0615 151.527 74.0501 151.527C74.0048 151.516 71.5916 151.057 68.6232 147.987C65.6322 144.883 65.8248 140.939 65.8248 140.939V131.504C65.8248 131.504 69.1104 129.521 74.1408 129.588Z" fill="#00B388"/>
<path d="M79.4769 147.998C76.8258 150.743 74.6165 151.404 74.1406 151.516V129.588C76.5199 129.622 79.2843 130.115 82.2754 131.493V140.95C82.2754 140.95 82.4566 144.894 79.4769 147.998Z" fill="#00B388"/>
<path d="M73.4533 240.663V262.579C73.3966 262.591 73.374 262.602 73.3626 262.602C73.3173 262.591 70.9041 262.131 67.9357 259.061C64.9447 255.957 65.1373 252.013 65.1373 252.013V242.579C65.1373 242.579 68.4229 240.596 73.4533 240.663Z" fill="#00B388"/>
<path d="M78.7894 259.072C76.1383 261.817 73.929 262.479 73.4531 262.591V240.663C75.8324 240.696 78.5968 241.189 81.5879 242.568V252.024C81.5879 252.024 81.7691 255.969 78.7894 259.072Z" fill="#00B388"/>
<path d="M95.3966 351.737V373.654C95.34 373.665 95.3173 373.676 95.306 373.676C95.2607 373.665 92.8475 373.205 89.8791 370.135C86.888 367.032 87.0806 363.088 87.0806 363.088V353.653C87.0806 353.653 90.3662 351.67 95.3966 351.737Z" fill="#00B388"/>
<path d="M100.733 370.147C98.0816 372.892 95.8723 373.553 95.3965 373.665V351.737C97.7757 351.771 100.54 352.264 103.531 353.642V363.099C103.531 363.099 103.712 367.043 100.733 370.147Z" fill="#00B388"/>
<path d="M70.713 462.812V484.728C70.6564 484.739 70.6337 484.751 70.6224 484.751C70.5771 484.739 68.1639 484.28 65.1955 481.21C62.2044 478.106 62.397 474.162 62.397 474.162V464.728C62.397 464.728 65.6827 462.744 70.713 462.812Z" fill="#00B388"/>
<path d="M76.0492 481.221C73.398 483.966 71.1887 484.627 70.7129 484.739V462.812C73.0921 462.845 75.8566 463.338 78.8476 464.716V474.173C78.8476 474.173 79.0289 478.117 76.0492 481.221Z" fill="#00B388"/>
<path d="M8.31851 92.5637V114.48C8.26186 114.491 8.2392 114.503 8.22787 114.503C8.18255 114.491 5.76933 114.032 2.80095 110.962C-0.190096 107.858 0.00250717 103.914 0.00250717 103.914V94.4797C0.00250717 94.4797 3.28812 92.4965 8.31851 92.5637Z" fill="#00B388"/>
<path d="M13.6546 110.973C11.0035 113.718 8.79421 114.379 8.31836 114.491V92.5637C10.6976 92.5973 13.462 93.0903 16.4531 94.4685V103.925C16.4531 103.925 16.6344 107.869 13.6546 110.973Z" fill="#00B388"/>
<path d="M8.31851 195.41V217.327C8.26186 217.338 8.2392 217.349 8.22787 217.349C8.18255 217.338 5.76933 216.879 2.80095 213.808C-0.190096 210.705 0.00250717 206.761 0.00250717 206.761V197.326C0.00250717 197.326 3.28812 195.343 8.31851 195.41Z" fill="#00B388"/>
<path d="M13.6546 213.82C11.0035 216.565 8.79421 217.226 8.31836 217.338V195.41C10.6976 195.444 13.462 195.937 16.4531 197.315V206.772C16.4531 206.772 16.6344 210.716 13.6546 213.82Z" fill="#00B388"/>
<path d="M14.4904 298.257V320.173C14.4337 320.185 14.4111 320.196 14.3997 320.196C14.3544 320.185 11.9412 319.725 8.97282 316.655C5.98178 313.551 6.17438 309.607 6.17438 309.607V300.173C6.17438 300.173 9.46 298.19 14.4904 298.257Z" fill="#00B388"/>
<path d="M19.8265 316.666C17.1754 319.412 14.9661 320.073 14.4902 320.185V298.257C16.8695 298.291 19.6339 298.784 22.625 300.162V309.619C22.625 309.619 22.8062 313.563 19.8265 316.666Z" fill="#00B388"/>
<path d="M83.0529 407.96V429.877C82.9962 429.888 82.9736 429.899 82.9622 429.899C82.9169 429.888 80.5037 429.428 77.5353 426.358C74.5443 423.255 74.7369 419.31 74.7369 419.31V409.876C74.7369 409.876 78.0225 407.893 83.0529 407.96Z" fill="#00B388"/>
<path d="M88.389 426.369C85.7379 429.115 83.5286 429.776 83.0527 429.888V407.96C85.432 407.994 88.1964 408.487 91.1875 409.865V419.322C91.1875 419.322 91.3687 423.266 88.389 426.369Z" fill="#00B388"/>
<path d="M338.113 18.514V40.4305C338.057 40.4417 338.034 40.4529 338.023 40.4529C337.977 40.4417 335.564 39.9823 332.596 36.9122C329.605 33.8085 329.797 29.8644 329.797 29.8644V20.43C329.797 20.43 333.083 18.4468 338.113 18.514Z" fill="#00B388"/>
<path d="M343.45 36.9235C340.798 39.6687 338.589 40.3297 338.113 40.4418V18.514C340.493 18.5477 343.257 19.0407 346.248 20.4188V29.8757C346.248 29.8757 346.429 33.8198 343.45 36.9235Z" fill="#00B388"/>
<path d="M338.799 130.274V152.191C338.742 152.202 338.72 152.213 338.708 152.213C338.663 152.202 336.25 151.742 333.281 148.672C330.29 145.569 330.483 141.624 330.483 141.624V132.19C330.483 132.19 333.769 130.207 338.799 130.274Z" fill="#00B388"/>
<path d="M344.135 148.683C341.484 151.429 339.275 152.09 338.799 152.202V130.274C341.178 130.308 343.943 130.801 346.934 132.179V141.636C346.934 141.636 347.115 145.58 344.135 148.683Z" fill="#00B388"/>
<path d="M338.113 241.348V263.265C338.057 263.276 338.034 263.287 338.023 263.287C337.977 263.276 335.564 262.817 332.596 259.747C329.605 256.643 329.797 252.699 329.797 252.699V243.264C329.797 243.264 333.083 241.281 338.113 241.348Z" fill="#00B388"/>
<path d="M343.45 259.758C340.798 262.503 338.589 263.164 338.113 263.276V241.349C340.493 241.382 343.257 241.875 346.248 243.253V252.71C346.248 252.71 346.429 256.654 343.45 259.758Z" fill="#00B388"/>
<path d="M317.541 352.423V374.339C317.485 374.35 317.462 374.362 317.451 374.362C317.405 374.35 314.992 373.891 312.024 370.821C309.033 367.717 309.225 363.773 309.225 363.773V354.339C309.225 354.339 312.511 352.355 317.541 352.423Z" fill="#00B388"/>
<path d="M322.877 370.832C320.226 373.577 318.017 374.238 317.541 374.35V352.423C319.92 352.456 322.685 352.949 325.676 354.328V363.784C325.676 363.784 325.857 367.728 322.877 370.832Z" fill="#00B388"/>
<path d="M339.485 462.812V484.728C339.428 484.739 339.405 484.751 339.394 484.751C339.349 484.739 336.935 484.28 333.967 481.21C330.976 478.106 331.169 474.162 331.169 474.162V464.728C331.169 464.728 334.454 462.744 339.485 462.812Z" fill="#00B388"/>
<path d="M344.821 481.221C342.17 483.966 339.96 484.627 339.484 484.739V462.812C341.864 462.845 344.628 463.338 347.619 464.716V474.173C347.619 474.173 347.8 478.117 344.821 481.221Z" fill="#00B388"/>
<path d="M266.807 58.967V80.8835C266.75 80.8947 266.727 80.906 266.716 80.906C266.671 80.8947 264.258 80.4353 261.289 77.3652C258.298 74.2615 258.491 70.3174 258.491 70.3174V60.883C258.491 60.883 261.776 58.8998 266.807 58.967Z" fill="#00B388"/>
<path d="M272.143 77.3765C269.492 80.1217 267.282 80.7827 266.807 80.8948V58.967C269.186 59.0007 271.95 59.4937 274.941 60.8719V70.3287C274.941 70.3287 275.123 74.2728 272.143 77.3765Z" fill="#00B388"/>
<path d="M269.547 168.67V190.587C269.49 190.598 269.468 190.609 269.456 190.609C269.411 190.598 266.998 190.139 264.029 187.068C261.038 183.965 261.231 180.021 261.231 180.021V170.586C261.231 170.586 264.517 168.603 269.547 168.67Z" fill="#00B388"/>
<path d="M274.883 187.08C272.232 189.825 270.023 190.486 269.547 190.598V168.67C271.926 168.704 274.691 169.197 277.682 170.575V180.032C277.682 180.032 277.863 183.976 274.883 187.08Z" fill="#00B388"/>
<path d="M264.065 278.373V300.29C264.008 300.301 263.985 300.312 263.974 300.312C263.929 300.301 261.515 299.842 258.547 296.772C255.556 293.668 255.749 289.724 255.749 289.724V280.289C255.749 280.289 259.034 278.306 264.065 278.373Z" fill="#00B388"/>
<path d="M269.401 296.783C266.75 299.528 264.54 300.189 264.064 300.301V278.373C266.444 278.407 269.208 278.9 272.199 280.278V289.735C272.199 289.735 272.38 293.679 269.401 296.783Z" fill="#00B388"/>
<path d="M328.514 407.96V429.877C328.457 429.888 328.435 429.899 328.423 429.899C328.378 429.888 325.965 429.428 322.996 426.358C320.005 423.255 320.198 419.31 320.198 419.31V409.876C320.198 409.876 323.483 407.893 328.514 407.96Z" fill="#00B388"/>
<path d="M333.85 426.37C331.199 429.115 328.99 429.776 328.514 429.888V407.96C330.893 407.994 333.657 408.487 336.648 409.865V419.322C336.648 419.322 336.83 423.266 333.85 426.37Z" fill="#00B388"/>
<path fill-rule="evenodd" clip-rule="evenodd" d="M404.51 41.1384L404.562 42.9414L402.067 42.9731C400.608 44.4281 398.939 45.5194 397.059 46.2627L396.988 48.556L398.324 49.6948C400.116 49.078 401.944 49.1096 403.807 49.8213L397.252 55.9578C399.554 56.7803 401.961 57.2864 404.404 57.4761C406.407 57.6343 408.428 57.571 410.414 57.3022C413.472 51.1656 411.082 44.3807 404.51 41.1384ZM409.377 57.9664C408.446 58.0613 407.515 58.1088 406.583 58.1088C405.845 58.1088 405.107 58.0771 404.369 58.0297C403.244 57.9506 402.12 57.7925 401.03 57.571C400.45 57.492 399.905 57.3971 399.378 57.3022C399.22 57.7608 399.062 58.2195 398.921 58.6781C399.519 58.8996 399.941 59.3899 400.046 59.9592C401.522 60.1965 402.998 60.323 404.51 60.323C405.968 60.323 407.427 60.2123 408.85 59.9909C408.903 59.4373 409.307 58.9628 409.869 58.7572C409.694 58.4725 409.535 58.2195 409.377 57.9664ZM409.535 60.3072C407.866 60.6077 406.179 60.7658 404.474 60.7658C402.787 60.7658 401.118 60.6235 399.466 60.323C399.396 60.323 399.343 60.3072 399.273 60.3072L397.586 61.6199V62.6637C401.979 63.154 406.653 63.1698 411.047 62.6954L411.082 61.525L409.535 60.3072Z" fill="#00B388"/>
<path d="M404.508 41.1385C405.756 41.8661 406.687 42.9257 407.548 44.017C409.481 46.5159 410.043 49.7898 409.235 52.7315C409.059 53.3642 408.813 54.0284 408.497 54.6136C408.356 54.9141 408.181 55.2146 407.987 55.4993C408.356 54.2182 408.602 52.953 408.673 51.6877C408.813 48.0342 407.495 43.7165 404.508 41.1385Z" fill="#00B388"/>
<path d="M402.047 44.9343C402.399 45.5195 403.102 45.5986 403.629 45.1557C403.594 45.3139 403.471 45.4721 403.312 45.567C402.803 45.8991 401.977 45.5037 402.047 44.9343Z" fill="#00B388"/>
<path fill-rule="evenodd" clip-rule="evenodd" d="M405.193 143.985L405.246 145.788L402.751 145.82C401.292 147.275 399.622 148.366 397.742 149.11L397.672 151.403L399.007 152.542C400.8 151.925 402.627 151.957 404.49 152.668L397.935 158.805C400.238 159.627 402.645 160.133 405.088 160.323C407.091 160.481 409.112 160.418 411.098 160.149C414.155 154.013 411.766 147.228 405.193 143.985ZM410.061 160.813C409.13 160.908 408.198 160.956 407.267 160.956C406.529 160.956 405.791 160.924 405.053 160.877C403.928 160.798 402.803 160.639 401.714 160.418C401.134 160.339 400.589 160.244 400.062 160.149C399.904 160.608 399.746 161.066 399.605 161.525C400.202 161.746 400.624 162.237 400.73 162.806C402.206 163.043 403.682 163.17 405.193 163.17C406.652 163.17 408.11 163.059 409.534 162.838C409.586 162.284 409.991 161.81 410.553 161.604C410.377 161.319 410.219 161.066 410.061 160.813ZM410.219 163.154C408.55 163.455 406.863 163.613 405.158 163.613C403.471 163.613 401.802 163.47 400.15 163.17C400.079 163.17 400.027 163.154 399.956 163.154L398.269 164.467V165.511C402.663 166.001 407.337 166.017 411.73 165.542L411.766 164.372L410.219 163.154Z" fill="#00B388"/>
<path d="M405.193 143.985C406.441 144.713 407.372 145.773 408.234 146.864C410.167 149.363 410.729 152.637 409.921 155.578C409.745 156.211 409.499 156.875 409.182 157.46C409.042 157.761 408.866 158.061 408.673 158.346C409.042 157.065 409.288 155.8 409.358 154.534C409.499 150.881 408.181 146.563 405.193 143.985Z" fill="#00B388"/>
<path d="M402.733 147.781C403.084 148.366 403.787 148.445 404.314 148.003C404.279 148.161 404.156 148.319 403.998 148.414C403.488 148.746 402.662 148.35 402.733 147.781Z" fill="#00B388"/>
<path fill-rule="evenodd" clip-rule="evenodd" d="M404.51 246.832L404.562 248.635L402.067 248.667C400.608 250.122 398.939 251.213 397.059 251.956L396.988 254.25L398.324 255.388C400.116 254.772 401.944 254.803 403.807 255.515L397.252 261.651C399.554 262.474 401.961 262.98 404.404 263.17C406.407 263.328 408.428 263.265 410.414 262.996C413.472 256.859 411.082 250.074 404.51 246.832ZM409.377 263.66C408.446 263.755 407.515 263.802 406.583 263.802C405.845 263.802 405.107 263.771 404.369 263.723C403.244 263.644 402.12 263.486 401.03 263.265C400.45 263.186 399.905 263.091 399.378 262.996C399.22 263.454 399.062 263.913 398.921 264.372C399.519 264.593 399.941 265.083 400.046 265.653C401.522 265.89 402.998 266.017 404.51 266.017C405.968 266.017 407.427 265.906 408.85 265.684C408.903 265.131 409.307 264.656 409.869 264.451C409.694 264.166 409.535 263.913 409.377 263.66ZM409.535 266.001C407.866 266.301 406.179 266.459 404.474 266.459C402.787 266.459 401.118 266.317 399.466 266.017C399.396 266.017 399.343 266.001 399.273 266.001L397.586 267.313V268.357C401.979 268.848 406.653 268.863 411.047 268.389L411.082 267.219L409.535 266.001Z" fill="#00B388"/>
<path d="M404.508 246.832C405.756 247.559 406.687 248.619 407.548 249.71C409.481 252.209 410.043 255.483 409.235 258.425C409.059 259.058 408.813 259.722 408.497 260.307C408.356 260.607 408.181 260.908 407.987 261.193C408.356 259.912 408.602 258.646 408.673 257.381C408.813 253.728 407.495 249.41 404.508 246.832Z" fill="#00B388"/>
<path d="M402.047 250.628C402.399 251.213 403.102 251.292 403.629 250.849C403.594 251.007 403.471 251.165 403.312 251.26C402.803 251.592 401.977 251.197 402.047 250.628Z" fill="#00B388"/>
<path fill-rule="evenodd" clip-rule="evenodd" d="M372.967 351.735L373.019 353.538L370.524 353.57C369.065 355.025 367.396 356.116 365.516 356.86L365.445 359.153L366.781 360.292C368.573 359.675 370.401 359.707 372.264 360.418L365.709 366.555C368.011 367.377 370.419 367.883 372.861 368.073C374.864 368.231 376.885 368.168 378.871 367.899C381.929 361.763 379.539 354.978 372.967 351.735ZM377.834 368.563C376.903 368.658 375.972 368.706 375.04 368.706C374.302 368.706 373.564 368.674 372.826 368.627C371.701 368.548 370.577 368.389 369.487 368.168C368.907 368.089 368.362 367.994 367.835 367.899C367.677 368.358 367.519 368.816 367.378 369.275C367.976 369.496 368.398 369.987 368.503 370.556C369.979 370.793 371.455 370.92 372.967 370.92C374.425 370.92 375.884 370.809 377.307 370.588C377.36 370.034 377.764 369.56 378.326 369.354C378.151 369.069 377.993 368.816 377.834 368.563ZM377.993 370.904C376.323 371.205 374.636 371.363 372.931 371.363C371.244 371.363 369.575 371.22 367.923 370.92C367.853 370.92 367.8 370.904 367.73 370.904L366.043 372.217V373.261C370.436 373.751 375.111 373.767 379.504 373.292L379.539 372.122L377.993 370.904Z" fill="#00B388"/>
<path d="M372.967 351.735C374.214 352.463 375.146 353.523 376.007 354.614C377.94 357.113 378.502 360.387 377.694 363.328C377.518 363.961 377.272 364.625 376.956 365.21C376.815 365.511 376.64 365.811 376.446 366.096C376.815 364.815 377.061 363.55 377.132 362.284C377.272 358.631 375.954 354.313 372.967 351.735Z" fill="#00B388"/>
<path d="M370.506 355.531C370.858 356.116 371.561 356.195 372.088 355.753C372.053 355.911 371.93 356.069 371.771 356.164C371.262 356.496 370.436 356.1 370.506 355.531Z" fill="#00B388"/>
<path fill-rule="evenodd" clip-rule="evenodd" d="M406.568 462.81L406.621 464.613L404.126 464.645C402.667 466.1 400.997 467.191 399.117 467.934L399.047 470.228L400.382 471.366C402.175 470.749 404.002 470.781 405.865 471.493L399.31 477.629C401.613 478.452 404.02 478.958 406.463 479.148C408.466 479.306 410.487 479.243 412.473 478.974C415.53 472.837 413.141 466.052 406.568 462.81ZM411.436 479.638C410.505 479.733 409.573 479.78 408.642 479.78C407.904 479.78 407.166 479.749 406.428 479.701C405.303 479.622 404.178 479.464 403.089 479.243C402.509 479.163 401.964 479.069 401.437 478.974C401.279 479.432 401.121 479.891 400.98 480.35C401.577 480.571 401.999 481.061 402.105 481.631C403.581 481.868 405.057 481.995 406.568 481.995C408.027 481.995 409.485 481.884 410.909 481.662C410.961 481.109 411.366 480.634 411.928 480.429C411.752 480.144 411.594 479.891 411.436 479.638ZM411.594 481.979C409.925 482.279 408.238 482.437 406.533 482.437C404.846 482.437 403.177 482.295 401.525 481.995C401.454 481.995 401.402 481.979 401.331 481.979L399.644 483.291V484.335C404.038 484.826 408.712 484.841 413.105 484.367L413.141 483.197L411.594 481.979Z" fill="#00B388"/>
<path d="M406.568 462.81C407.816 463.537 408.747 464.597 409.609 465.688C411.542 468.187 412.104 471.461 411.296 474.403C411.12 475.036 410.874 475.7 410.557 476.285C410.417 476.585 410.241 476.886 410.048 477.171C410.417 475.89 410.663 474.624 410.733 473.359C410.874 469.706 409.556 465.388 406.568 462.81Z" fill="#00B388"/>
<path d="M404.108 466.606C404.459 467.191 405.162 467.27 405.689 466.827C405.654 466.985 405.531 467.143 405.373 467.238C404.863 467.57 404.037 467.175 404.108 466.606Z" fill="#00B388"/>
<path fill-rule="evenodd" clip-rule="evenodd" d="M337.316 74.7352L337.369 76.5382L334.874 76.5699C333.415 78.0249 331.746 79.1162 329.865 79.8595L329.795 82.1528L331.13 83.2916C332.923 82.6748 334.751 82.7064 336.613 83.4181L330.059 89.5546C332.361 90.3771 334.768 90.8832 337.211 91.073C339.214 91.2311 341.235 91.1678 343.221 90.899C346.278 84.7624 343.889 77.9775 337.316 74.7352ZM342.184 91.5632C341.253 91.6581 340.321 91.7056 339.39 91.7056C338.652 91.7056 337.914 91.674 337.176 91.6265C336.051 91.5474 334.926 91.3893 333.837 91.1678C333.257 91.0888 332.712 90.9939 332.185 90.899C332.027 91.3576 331.869 91.8163 331.728 92.275C332.325 92.4964 332.747 92.9867 332.853 93.556C334.329 93.7933 335.805 93.9198 337.316 93.9198C338.775 93.9198 340.233 93.8091 341.657 93.5877C341.709 93.0341 342.114 92.5596 342.676 92.354C342.5 92.0693 342.342 91.8163 342.184 91.5632ZM342.342 93.904C340.673 94.2045 338.986 94.3626 337.281 94.3626C335.594 94.3626 333.925 94.2203 332.273 93.9198C332.202 93.9198 332.15 93.904 332.079 93.904L330.392 95.2167V96.2605C334.786 96.7508 339.46 96.7666 343.853 96.2922L343.889 95.1218L342.342 93.904Z" fill="#00B388"/>
<path d="M337.314 74.7352C338.562 75.4628 339.494 76.5224 340.355 77.6137C342.288 80.1126 342.85 83.3865 342.042 86.3282C341.866 86.9608 341.62 87.6251 341.304 88.2103C341.163 88.5108 340.987 88.8113 340.794 89.096C341.163 87.8149 341.409 86.5496 341.479 85.2844C341.62 81.6309 340.302 77.3132 337.314 74.7352Z" fill="#00B388"/>
<path d="M334.856 78.531C335.207 79.1162 335.91 79.1953 336.437 78.7524C336.402 78.9106 336.279 79.0687 336.121 79.1636C335.611 79.4958 334.785 79.1004 334.856 78.531Z" fill="#00B388"/>
<path fill-rule="evenodd" clip-rule="evenodd" d="M337.316 185.81L337.369 187.613L334.874 187.644C333.415 189.099 331.746 190.191 329.865 190.934L329.795 193.227L331.13 194.366C332.923 193.749 334.751 193.781 336.613 194.492L330.059 200.629C332.361 201.451 334.768 201.958 337.211 202.147C339.214 202.305 341.235 202.242 343.221 201.973C346.278 195.837 343.889 189.052 337.316 185.81ZM342.184 202.638C341.253 202.732 340.321 202.78 339.39 202.78C338.652 202.78 337.914 202.748 337.176 202.701C336.051 202.622 334.926 202.464 333.837 202.242C333.257 202.163 332.712 202.068 332.185 201.973C332.027 202.432 331.869 202.891 331.728 203.349C332.325 203.571 332.747 204.061 332.853 204.63C334.329 204.868 335.805 204.994 337.316 204.994C338.775 204.994 340.233 204.883 341.657 204.662C341.709 204.108 342.114 203.634 342.676 203.428C342.5 203.144 342.342 202.891 342.184 202.638ZM342.342 204.978C340.673 205.279 338.986 205.437 337.281 205.437C335.594 205.437 333.925 205.295 332.273 204.994C332.202 204.994 332.15 204.978 332.079 204.978L330.392 206.291V207.335C334.786 207.825 339.46 207.841 343.853 207.367L343.889 206.196L342.342 204.978Z" fill="#00B388"/>
<path d="M337.314 185.809C338.562 186.537 339.494 187.597 340.355 188.688C342.288 191.187 342.85 194.461 342.042 197.402C341.866 198.035 341.62 198.699 341.304 199.285C341.163 199.585 340.987 199.886 340.794 200.17C341.163 198.889 341.409 197.624 341.479 196.359C341.62 192.705 340.302 188.387 337.314 185.809Z" fill="#00B388"/>
<path d="M334.856 189.605C335.207 190.191 335.91 190.27 336.437 189.827C336.402 189.985 336.279 190.143 336.121 190.238C335.611 190.57 334.785 190.175 334.856 189.605Z" fill="#00B388"/>
<path fill-rule="evenodd" clip-rule="evenodd" d="M333.203 296.884L333.256 298.687L330.76 298.719C329.302 300.174 327.632 301.265 325.752 302.008L325.682 304.302L327.017 305.44C328.81 304.824 330.637 304.855 332.5 305.567L325.945 311.703C328.247 312.526 330.655 313.032 333.097 313.222C335.101 313.38 337.122 313.317 339.107 313.048C342.165 306.911 339.775 300.126 333.203 296.884ZM338.071 313.712C337.139 313.807 336.208 313.854 335.277 313.854C334.538 313.854 333.8 313.823 333.062 313.775C331.938 313.696 330.813 313.538 329.723 313.317C329.144 313.238 328.599 313.143 328.072 313.048C327.913 313.506 327.755 313.965 327.615 314.424C328.212 314.645 328.634 315.135 328.739 315.705C330.216 315.942 331.692 316.069 333.203 316.069C334.661 316.069 336.12 315.958 337.543 315.736C337.596 315.183 338 314.708 338.563 314.503C338.387 314.218 338.229 313.965 338.071 313.712ZM338.229 316.053C336.559 316.353 334.872 316.511 333.168 316.511C331.481 316.511 329.811 316.369 328.159 316.069C328.089 316.069 328.036 316.053 327.966 316.053L326.279 317.365V318.409C330.672 318.9 335.347 318.915 339.74 318.441L339.775 317.271L338.229 316.053Z" fill="#00B388"/>
<path d="M333.201 296.884C334.449 297.611 335.38 298.671 336.241 299.762C338.174 302.261 338.737 305.535 337.928 308.477C337.753 309.11 337.507 309.774 337.19 310.359C337.05 310.659 336.874 310.96 336.681 311.245C337.05 309.964 337.296 308.698 337.366 307.433C337.507 303.78 336.189 299.462 333.201 296.884Z" fill="#00B388"/>
<path d="M330.742 300.68C331.094 301.265 331.797 301.344 332.324 300.901C332.289 301.059 332.166 301.217 332.008 301.312C331.498 301.644 330.672 301.249 330.742 300.68Z" fill="#00B388"/>
<path fill-rule="evenodd" clip-rule="evenodd" d="M139.855 4.11401L139.908 5.91701L137.413 5.94865C135.954 7.4037 134.285 8.49499 132.404 9.23833L132.334 11.5316L133.67 12.6704C135.462 12.0535 137.29 12.0852 139.152 12.7969L132.598 18.9334C134.9 19.7558 137.307 20.2619 139.75 20.4517C141.753 20.6099 143.774 20.5466 145.76 20.2778C148.818 14.1412 146.428 7.35625 139.855 4.11401ZM144.723 20.942C143.792 21.0369 142.86 21.0844 141.929 21.0844C141.191 21.0844 140.453 21.0527 139.715 21.0053C138.59 20.9262 137.465 20.768 136.376 20.5466C135.796 20.4676 135.251 20.3727 134.724 20.2778C134.566 20.7364 134.408 21.1951 134.267 21.6537C134.865 21.8752 135.286 22.3654 135.392 22.9348C136.868 23.1721 138.344 23.2986 139.855 23.2986C141.314 23.2986 142.772 23.1879 144.196 22.9664C144.249 22.4129 144.653 21.9384 145.215 21.7328C145.039 21.4481 144.881 21.1951 144.723 20.942ZM144.881 23.2828C143.212 23.5833 141.525 23.7414 139.82 23.7414C138.133 23.7414 136.464 23.5991 134.812 23.2986C134.742 23.2986 134.689 23.2828 134.618 23.2828L132.931 24.5955V25.6393C137.325 26.1296 141.999 26.1454 146.392 25.6709L146.428 24.5006L144.881 23.2828Z" fill="#00B388"/>
<path d="M139.852 4.11401C141.099 4.84154 142.031 5.9012 142.892 6.99249C144.825 9.49139 145.387 12.7653 144.579 15.707C144.403 16.3396 144.157 17.0039 143.841 17.5891C143.7 17.8896 143.524 18.1901 143.331 18.4748C143.7 17.1937 143.946 15.9284 144.016 14.6632C144.157 11.0097 142.839 6.69199 139.852 4.11401Z" fill="#00B388"/>
<path d="M137.391 7.90979C137.742 8.49497 138.445 8.57405 138.973 8.13121C138.937 8.28937 138.814 8.44753 138.656 8.54242C138.147 8.87455 137.321 8.47916 137.391 7.90979Z" fill="#00B388"/>
<path fill-rule="evenodd" clip-rule="evenodd" d="M140.533 113.817L140.586 115.62L138.09 115.652C136.632 117.107 134.962 118.198 133.082 118.941L133.012 121.235L134.347 122.373C136.14 121.756 137.967 121.788 139.83 122.5L133.275 128.636C135.577 129.459 137.985 129.965 140.428 130.155C142.431 130.313 144.452 130.25 146.438 129.981C149.495 123.844 147.105 117.059 140.533 113.817ZM145.401 130.645C144.469 130.74 143.538 130.787 142.607 130.787C141.869 130.787 141.13 130.756 140.392 130.708C139.268 130.629 138.143 130.471 137.054 130.25C136.474 130.17 135.929 130.076 135.402 129.981C135.244 130.439 135.085 130.898 134.945 131.357C135.542 131.578 135.964 132.068 136.069 132.638C137.546 132.875 139.022 133.001 140.533 133.001C141.992 133.001 143.45 132.891 144.874 132.669C144.926 132.116 145.33 131.641 145.893 131.436C145.717 131.151 145.559 130.898 145.401 130.645ZM145.559 132.986C143.889 133.286 142.202 133.444 140.498 133.444C138.811 133.444 137.141 133.302 135.49 133.001C135.419 133.001 135.367 132.986 135.296 132.986L133.609 134.298V135.342C138.002 135.832 142.677 135.848 147.07 135.374L147.105 134.203L145.559 132.986Z" fill="#00B388"/>
<path d="M140.533 113.817C141.781 114.544 142.712 115.604 143.573 116.695C145.506 119.194 146.069 122.468 145.26 125.41C145.085 126.043 144.839 126.707 144.522 127.292C144.382 127.592 144.206 127.893 144.013 128.178C144.382 126.897 144.628 125.631 144.698 124.366C144.839 120.713 143.521 116.395 140.533 113.817Z" fill="#00B388"/>
<path d="M138.075 117.613C138.426 118.198 139.129 118.277 139.656 117.834C139.621 117.992 139.498 118.15 139.34 118.245C138.83 118.577 138.004 118.182 138.075 117.613Z" fill="#00B388"/>
<path fill-rule="evenodd" clip-rule="evenodd" d="M139.855 223.52L139.908 225.323L137.413 225.355C135.954 226.81 134.285 227.901 132.404 228.644L132.334 230.938L133.67 232.076C135.462 231.46 137.29 231.491 139.152 232.203L132.598 238.339C134.9 239.162 137.307 239.668 139.75 239.858C141.753 240.016 143.774 239.953 145.76 239.684C148.818 233.547 146.428 226.762 139.855 223.52ZM144.723 240.348C143.792 240.443 142.86 240.49 141.929 240.49C141.191 240.49 140.453 240.459 139.715 240.411C138.59 240.332 137.465 240.174 136.376 239.953C135.796 239.874 135.251 239.779 134.724 239.684C134.566 240.142 134.408 240.601 134.267 241.06C134.865 241.281 135.286 241.771 135.392 242.341C136.868 242.578 138.344 242.705 139.855 242.705C141.314 242.705 142.772 242.594 144.196 242.372C144.249 241.819 144.653 241.344 145.215 241.139C145.039 240.854 144.881 240.601 144.723 240.348ZM144.881 242.689C143.212 242.989 141.525 243.147 139.82 243.147C138.133 243.147 136.464 243.005 134.812 242.705C134.742 242.705 134.689 242.689 134.618 242.689L132.931 244.001V245.045C137.325 245.536 141.999 245.551 146.392 245.077L146.428 243.907L144.881 242.689Z" fill="#00B388"/>
<path d="M139.852 223.52C141.099 224.248 142.031 225.307 142.892 226.398C144.825 228.897 145.387 232.171 144.579 235.113C144.403 235.746 144.157 236.41 143.841 236.995C143.7 237.296 143.524 237.596 143.331 237.881C143.7 236.6 143.946 235.334 144.016 234.069C144.157 230.416 142.839 226.098 139.852 223.52Z" fill="#00B388"/>
<path d="M137.391 227.316C137.742 227.901 138.445 227.98 138.973 227.537C138.937 227.695 138.814 227.854 138.656 227.948C138.147 228.281 137.321 227.885 137.391 227.316Z" fill="#00B388"/>
<path fill-rule="evenodd" clip-rule="evenodd" d="M150.816 333.223L150.869 335.026L148.374 335.058C146.915 336.513 145.246 337.604 143.365 338.347L143.295 340.641L144.63 341.779C146.423 341.163 148.251 341.194 150.113 341.906L143.559 348.043C145.861 348.865 148.268 349.371 150.711 349.561C152.714 349.719 154.735 349.656 156.721 349.387C159.778 343.25 157.389 336.465 150.816 333.223ZM155.684 350.051C154.753 350.146 153.821 350.193 152.89 350.193C152.152 350.193 151.414 350.162 150.676 350.114C149.551 350.035 148.426 349.877 147.337 349.656C146.757 349.577 146.212 349.482 145.685 349.387C145.527 349.846 145.369 350.304 145.228 350.763C145.825 350.984 146.247 351.475 146.353 352.044C147.829 352.281 149.305 352.408 150.816 352.408C152.275 352.408 153.733 352.297 155.157 352.076C155.209 351.522 155.614 351.048 156.176 350.842C156 350.557 155.842 350.304 155.684 350.051ZM155.842 352.392C154.173 352.692 152.486 352.851 150.781 352.851C149.094 352.851 147.425 352.708 145.773 352.408C145.702 352.408 145.65 352.392 145.579 352.392L143.892 353.705V354.748C148.286 355.239 152.96 355.255 157.353 354.78L157.389 353.61L155.842 352.392Z" fill="#00B388"/>
<path d="M150.818 333.223C152.066 333.951 152.997 335.01 153.859 336.102C155.792 338.601 156.354 341.874 155.546 344.816C155.37 345.449 155.124 346.113 154.807 346.698C154.667 346.999 154.491 347.299 154.298 347.584C154.667 346.303 154.913 345.038 154.983 343.772C155.124 340.119 153.806 335.801 150.818 333.223Z" fill="#00B388"/>
<path d="M148.36 337.019C148.711 337.604 149.414 337.683 149.941 337.24C149.906 337.399 149.783 337.557 149.625 337.652C149.115 337.984 148.289 337.588 148.36 337.019Z" fill="#00B388"/>
<path fill-rule="evenodd" clip-rule="evenodd" d="M138.484 442.926L138.537 444.729L136.042 444.761C134.583 446.216 132.914 447.307 131.033 448.05L130.963 450.344L132.298 451.482C134.091 450.866 135.919 450.897 137.781 451.609L131.226 457.745C133.529 458.568 135.936 459.074 138.379 459.264C140.382 459.422 142.403 459.359 144.389 459.09C147.446 452.953 145.057 446.168 138.484 442.926ZM143.352 459.754C142.421 459.849 141.489 459.896 140.558 459.896C139.82 459.896 139.082 459.865 138.344 459.817C137.219 459.738 136.094 459.58 135.005 459.359C134.425 459.28 133.88 459.185 133.353 459.09C133.195 459.548 133.037 460.007 132.896 460.466C133.493 460.687 133.915 461.177 134.021 461.747C135.497 461.984 136.973 462.111 138.484 462.111C139.943 462.111 141.401 462 142.825 461.778C142.877 461.225 143.282 460.75 143.844 460.545C143.668 460.26 143.51 460.007 143.352 459.754ZM143.51 462.095C141.841 462.395 140.154 462.553 138.449 462.553C136.762 462.553 135.093 462.411 133.441 462.111C133.37 462.111 133.318 462.095 133.247 462.095L131.56 463.407V464.451C135.954 464.942 140.628 464.957 145.021 464.483L145.057 463.313L143.51 462.095Z" fill="#00B388"/>
<path d="M138.48 442.926C139.728 443.654 140.66 444.713 141.521 445.805C143.454 448.304 144.016 451.577 143.208 454.519C143.032 455.152 142.786 455.816 142.47 456.401C142.329 456.702 142.153 457.002 141.96 457.287C142.329 456.006 142.575 454.741 142.645 453.475C142.786 449.822 141.468 445.504 138.48 442.926Z" fill="#00B388"/>
<path d="M136.02 446.722C136.371 447.307 137.074 447.386 137.601 446.943C137.566 447.102 137.443 447.26 137.285 447.355C136.775 447.687 135.95 447.291 136.02 446.722Z" fill="#00B388"/>
<path fill-rule="evenodd" clip-rule="evenodd" d="M74.0272 74.0496L74.0799 75.8526L71.5845 75.8842C70.1259 77.3392 68.4565 78.4305 66.5762 79.1739L66.5059 81.4672L67.8414 82.6059C69.6339 81.9891 71.4615 82.0207 73.3242 82.7324L66.7695 88.869C69.0715 89.6914 71.479 90.1975 73.9217 90.3873C75.925 90.5454 77.946 90.4822 79.9317 90.2133C82.9894 84.0768 80.5995 77.2918 74.0272 74.0496ZM78.8949 90.8776C77.9635 90.9725 77.0322 91.0199 76.1008 91.0199C75.3627 91.0199 74.6246 90.9883 73.8866 90.9408C72.7619 90.8618 71.6372 90.7036 70.5477 90.4822C69.9678 90.4031 69.423 90.3082 68.8958 90.2133C68.7376 90.672 68.5795 91.1306 68.4389 91.5893C69.0364 91.8107 69.4581 92.301 69.5636 92.8704C71.0397 93.1076 72.5159 93.2341 74.0272 93.2341C75.4857 93.2341 76.9443 93.1234 78.3677 92.902C78.4204 92.3484 78.8246 91.874 79.3869 91.6684C79.2112 91.3837 79.0531 91.1306 78.8949 90.8776ZM79.0531 93.2183C77.3836 93.5188 75.6966 93.677 73.992 93.677C72.305 93.677 70.6355 93.5346 68.9837 93.2341C68.9134 93.2341 68.8607 93.2183 68.7904 93.2183L67.1033 94.531V95.5749C71.4966 96.0652 76.1711 96.081 80.5643 95.6065L80.5995 94.4361L79.0531 93.2183Z" fill="#00B388"/>
<path d="M74.0273 74.0496C75.275 74.7771 76.2064 75.8367 77.0675 76.928C79.0005 79.4269 79.5629 82.7008 78.7545 85.6425C78.5788 86.2752 78.3328 86.9394 78.0164 87.5246C77.8759 87.8251 77.7001 88.1256 77.5068 88.4103C77.8759 87.1292 78.1219 85.864 78.1922 84.5987C78.3328 80.9452 77.0148 76.6275 74.0273 74.0496Z" fill="#00B388"/>
<path d="M71.5667 77.8453C71.9182 78.4305 72.6211 78.5096 73.1483 78.0668C73.1131 78.2249 72.9901 78.3831 72.832 78.478C72.3224 78.8101 71.4964 78.4147 71.5667 77.8453Z" fill="#00B388"/>
<path fill-rule="evenodd" clip-rule="evenodd" d="M74.0272 185.124L74.0799 186.927L71.5845 186.959C70.1259 188.414 68.4565 189.505 66.5762 190.248L66.5059 192.542L67.8414 193.68C69.6339 193.063 71.4615 193.095 73.3242 193.807L66.7695 199.943C69.0715 200.766 71.479 201.272 73.9217 201.462C75.925 201.62 77.946 201.557 79.9317 201.288C82.9894 195.151 80.5995 188.366 74.0272 185.124ZM78.8949 201.952C77.9635 202.047 77.0322 202.094 76.1008 202.094C75.3627 202.094 74.6246 202.063 73.8866 202.015C72.7619 201.936 71.6372 201.778 70.5477 201.557C69.9678 201.477 69.423 201.383 68.8958 201.288C68.7376 201.746 68.5795 202.205 68.4389 202.664C69.0364 202.885 69.4581 203.375 69.5636 203.945C71.0397 204.182 72.5159 204.308 74.0272 204.308C75.4857 204.308 76.9443 204.198 78.3677 203.976C78.4204 203.423 78.8246 202.948 79.3869 202.743C79.2112 202.458 79.0531 202.205 78.8949 201.952ZM79.0531 204.293C77.3836 204.593 75.6966 204.751 73.992 204.751C72.305 204.751 70.6355 204.609 68.9837 204.308C68.9134 204.308 68.8607 204.293 68.7904 204.293L67.1033 205.605V206.649C71.4966 207.139 76.1711 207.155 80.5643 206.681L80.5995 205.51L79.0531 204.293Z" fill="#00B388"/>
<path d="M74.0273 185.124C75.275 185.851 76.2064 186.911 77.0675 188.002C79.0005 190.501 79.5629 193.775 78.7545 196.717C78.5788 197.35 78.3328 198.014 78.0164 198.599C77.8759 198.899 77.7001 199.2 77.5068 199.485C77.8759 198.204 78.1219 196.938 78.1922 195.673C78.3328 192.02 77.0148 187.702 74.0273 185.124Z" fill="#00B388"/>
<path d="M71.5667 188.92C71.9182 189.505 72.6211 189.584 73.1483 189.141C73.1131 189.299 72.9901 189.457 72.832 189.552C72.3224 189.884 71.4964 189.489 71.5667 188.92Z" fill="#00B388"/>
<path fill-rule="evenodd" clip-rule="evenodd" d="M78.1385 296.198L78.1912 298.001L75.6958 298.033C74.2372 299.488 72.5678 300.579 70.6875 301.322L70.6172 303.616L71.9527 304.754C73.7452 304.138 75.5728 304.169 77.4356 304.881L70.8808 311.018C73.1829 311.84 75.5904 312.346 78.033 312.536C80.0364 312.694 82.0573 312.631 84.043 312.362C87.1008 306.225 84.7108 299.44 78.1385 296.198ZM83.0062 313.026C82.0749 313.121 81.1435 313.168 80.2121 313.168C79.474 313.168 78.736 313.137 77.9979 313.089C76.8732 313.01 75.7485 312.852 74.659 312.631C74.0791 312.552 73.5343 312.457 73.0071 312.362C72.849 312.821 72.6908 313.279 72.5502 313.738C73.1477 313.959 73.5695 314.45 73.6749 315.019C75.151 315.256 76.6272 315.383 78.1385 315.383C79.597 315.383 81.0556 315.272 82.479 315.051C82.5318 314.497 82.9359 314.023 83.4983 313.817C83.3225 313.532 83.1644 313.279 83.0062 313.026ZM83.1644 315.367C81.4949 315.667 79.8079 315.826 78.1033 315.826C76.4163 315.826 74.7469 315.683 73.095 315.383C73.0247 315.383 72.972 315.367 72.9017 315.367L71.2147 316.68V317.723C75.6079 318.214 80.2824 318.23 84.6757 317.755L84.7108 316.585L83.1644 315.367Z" fill="#00B388"/>
<path d="M78.1426 296.198C79.3903 296.926 80.3216 297.985 81.1827 299.077C83.1158 301.575 83.6781 304.849 82.8697 307.791C82.694 308.424 82.448 309.088 82.1317 309.673C81.9911 309.974 81.8154 310.274 81.6221 310.559C81.9911 309.278 82.2371 308.013 82.3074 306.747C82.448 303.094 81.13 298.776 78.1426 296.198Z" fill="#00B388"/>
<path d="M75.6819 299.994C76.0334 300.579 76.7363 300.658 77.2635 300.215C77.2284 300.374 77.1054 300.532 76.9472 300.627C76.4376 300.959 75.6117 300.563 75.6819 299.994Z" fill="#00B388"/>
<path fill-rule="evenodd" clip-rule="evenodd" d="M144.65 388.075L144.703 389.878L142.208 389.91C140.749 391.365 139.08 392.456 137.199 393.199L137.129 395.493L138.464 396.631C140.257 396.014 142.085 396.046 143.947 396.758L137.393 402.894C139.695 403.717 142.102 404.223 144.545 404.413C146.548 404.571 148.569 404.508 150.555 404.239C153.612 398.102 151.223 391.317 144.65 388.075ZM149.518 404.903C148.587 404.998 147.655 405.045 146.724 405.045C145.986 405.045 145.248 405.014 144.51 404.966C143.385 404.887 142.26 404.729 141.171 404.508C140.591 404.428 140.046 404.334 139.519 404.239C139.361 404.697 139.203 405.156 139.062 405.615C139.659 405.836 140.081 406.326 140.187 406.896C141.663 407.133 143.139 407.26 144.65 407.26C146.109 407.26 147.567 407.149 148.991 406.927C149.043 406.374 149.448 405.899 150.01 405.694C149.834 405.409 149.676 405.156 149.518 404.903ZM149.676 407.244C148.007 407.544 146.32 407.702 144.615 407.702C142.928 407.702 141.259 407.56 139.607 407.26C139.536 407.26 139.484 407.244 139.413 407.244L137.726 408.556V409.6C142.12 410.091 146.794 410.106 151.187 409.632L151.223 408.462L149.676 407.244Z" fill="#00B388"/>
<path d="M144.65 388.075C145.898 388.802 146.829 389.862 147.691 390.953C149.624 393.452 150.186 396.726 149.378 399.668C149.202 400.3 148.956 400.965 148.639 401.55C148.499 401.85 148.323 402.151 148.13 402.435C148.499 401.154 148.745 399.889 148.815 398.624C148.956 394.97 147.638 390.653 144.65 388.075Z" fill="#00B388"/>
<path d="M142.19 391.87C142.541 392.456 143.244 392.535 143.771 392.092C143.736 392.25 143.613 392.408 143.455 392.503C142.945 392.835 142.119 392.44 142.19 391.87Z" fill="#00B388"/>
<path fill-rule="evenodd" clip-rule="evenodd" d="M7.52129 41.1385L7.57401 42.9416L5.07863 42.9732C3.62006 44.4282 1.95061 45.5195 0.0702914 46.2629L0 48.5562L1.33556 49.6949C3.12801 49.0781 4.95562 49.1097 6.81837 49.8214L0.263597 55.958C2.56567 56.7804 4.97319 57.2865 7.41585 57.4763C9.41919 57.6344 11.4401 57.5712 13.4259 57.3023C16.4836 51.1658 14.0936 44.3808 7.52129 41.1385ZM12.389 57.9666C11.4577 58.0615 10.5263 58.1089 9.59492 58.1089C8.85685 58.1089 8.11878 58.0773 7.38071 58.0298C6.25603 57.9507 5.13135 57.7926 4.04182 57.5712C3.4619 57.4921 2.91714 57.3972 2.38994 57.3023C2.23179 57.761 2.07363 58.2196 1.93304 58.6783C2.53053 58.8997 2.95228 59.39 3.05772 59.9594C4.53386 60.1966 6.01 60.3231 7.52129 60.3231C8.97986 60.3231 10.4384 60.2124 11.8618 59.991C11.9146 59.4374 12.3187 58.963 12.8811 58.7574C12.7054 58.4727 12.5472 58.2196 12.389 57.9666ZM12.5472 60.3073C10.8778 60.6078 9.19074 60.766 7.48615 60.766C5.79913 60.766 4.12968 60.6236 2.47781 60.3231C2.40752 60.3231 2.3548 60.3073 2.2845 60.3073L0.597485 61.62V62.6639C4.99076 63.1541 9.66521 63.17 14.0585 62.6955L14.0936 61.5251L12.5472 60.3073Z" fill="#00B388"/>
<path d="M7.52148 41.1385C8.76918 41.8661 9.70055 42.9257 10.5616 44.017C12.4947 46.5159 13.057 49.7898 12.2487 52.7315C12.0729 53.3642 11.8269 54.0284 11.5106 54.6136C11.37 54.9141 11.1943 55.2146 11.001 55.4993C11.37 54.2182 11.616 52.953 11.6863 51.6877C11.8269 48.0342 10.5089 43.7165 7.52148 41.1385Z" fill="#00B388"/>
<path d="M5.06085 44.9343C5.41231 45.5195 6.11524 45.5986 6.64243 45.1557C6.60729 45.3139 6.48427 45.4721 6.32612 45.567C5.81649 45.8991 4.99056 45.5037 5.06085 44.9343Z" fill="#00B388"/>
<path fill-rule="evenodd" clip-rule="evenodd" d="M8.20684 143.985L8.25956 145.788L5.76417 145.82C4.30561 147.275 2.63616 148.366 0.755838 149.11L0.685547 151.403L2.0211 152.542C3.81356 151.925 5.64116 151.956 7.50391 152.668L0.949144 158.805C3.25122 159.627 5.65874 160.133 8.1014 160.323C10.1047 160.481 12.1256 160.418 14.1114 160.149C17.1691 154.012 14.7792 147.227 8.20684 143.985ZM13.0746 160.813C12.1432 160.908 11.2118 160.956 10.2805 160.956C9.54239 160.956 8.80432 160.924 8.06625 160.877C6.94157 160.797 5.81689 160.639 4.72736 160.418C4.14745 160.339 3.60268 160.244 3.07549 160.149C2.91733 160.608 2.75917 161.066 2.61859 161.525C3.21607 161.746 3.63783 162.237 3.74327 162.806C5.21941 163.043 6.69555 163.17 8.20684 163.17C9.66541 163.17 11.124 163.059 12.5474 162.838C12.6001 162.284 13.0043 161.81 13.5666 161.604C13.3909 161.319 13.2327 161.066 13.0746 160.813ZM13.2327 163.154C11.5633 163.454 9.87628 163.613 8.17169 163.613C6.48467 163.613 4.81523 163.47 3.16336 163.17C3.09306 163.17 3.04034 163.154 2.97005 163.154L1.28303 164.467V165.511C5.67631 166.001 10.3508 166.017 14.744 165.542L14.7792 164.372L13.2327 163.154Z" fill="#00B388"/>
<path d="M8.20703 143.985C9.45472 144.713 10.3861 145.773 11.2472 146.864C13.1802 149.363 13.7426 152.637 12.9342 155.578C12.7585 156.211 12.5124 156.875 12.1961 157.46C12.0555 157.761 11.8798 158.061 11.6865 158.346C12.0555 157.065 12.3016 155.8 12.3719 154.534C12.5124 150.881 11.1945 146.563 8.20703 143.985Z" fill="#00B388"/>
<path d="M5.7464 147.781C6.09786 148.366 6.80079 148.445 7.32798 148.003C7.29283 148.161 7.16982 148.319 7.01166 148.414C6.50204 148.746 5.67611 148.35 5.7464 147.781Z" fill="#00B388"/>
<path fill-rule="evenodd" clip-rule="evenodd" d="M7.52129 246.832L7.57401 248.635L5.07863 248.667C3.62006 250.122 1.95061 251.213 0.0702914 251.956L0 254.25L1.33556 255.388C3.12801 254.771 4.95562 254.803 6.81837 255.515L0.263597 261.651C2.56567 262.474 4.97319 262.98 7.41585 263.17C9.41919 263.328 11.4401 263.265 13.4259 262.996C16.4836 256.859 14.0936 250.074 7.52129 246.832ZM12.389 263.66C11.4577 263.755 10.5263 263.802 9.59492 263.802C8.85685 263.802 8.11878 263.771 7.38071 263.723C6.25603 263.644 5.13135 263.486 4.04182 263.265C3.4619 263.185 2.91714 263.091 2.38994 262.996C2.23179 263.454 2.07363 263.913 1.93304 264.372C2.53053 264.593 2.95228 265.083 3.05772 265.653C4.53386 265.89 6.01 266.016 7.52129 266.016C8.97986 266.016 10.4384 265.906 11.8618 265.684C11.9146 265.131 12.3187 264.656 12.8811 264.451C12.7054 264.166 12.5472 263.913 12.389 263.66ZM12.5472 266.001C10.8778 266.301 9.19074 266.459 7.48615 266.459C5.79913 266.459 4.12968 266.317 2.47781 266.016C2.40752 266.016 2.3548 266.001 2.2845 266.001L0.597485 267.313V268.357C4.99076 268.848 9.66521 268.863 14.0585 268.389L14.0936 267.218L12.5472 266.001Z" fill="#00B388"/>
<path d="M7.52148 246.832C8.76918 247.559 9.70055 248.619 10.5616 249.71C12.4947 252.209 13.057 255.483 12.2487 258.425C12.0729 259.057 11.8269 259.722 11.5106 260.307C11.37 260.607 11.1943 260.908 11.001 261.193C11.37 259.911 11.616 258.646 11.6863 257.381C11.8269 253.727 10.5089 249.41 7.52148 246.832Z" fill="#00B388"/>
<path d="M5.06085 250.628C5.41231 251.213 6.11524 251.292 6.64243 250.849C6.60729 251.007 6.48427 251.165 6.32612 251.26C5.81649 251.592 4.99056 251.197 5.06085 250.628Z" fill="#00B388"/>
<path fill-rule="evenodd" clip-rule="evenodd" d="M39.7498 351.735L39.8025 353.538L37.3071 353.57C35.8486 355.025 34.1791 356.116 32.2988 356.86L32.2285 359.153L33.5641 360.292C35.3565 359.675 37.1841 359.706 39.0469 360.418L32.4921 366.555C34.7942 367.377 37.2017 367.883 39.6444 368.073C41.6477 368.231 43.6686 368.168 45.6544 367.899C48.7121 361.762 46.3222 354.977 39.7498 351.735ZM44.6176 368.563C43.6862 368.658 42.7548 368.706 41.8234 368.706C41.0854 368.706 40.3473 368.674 39.6092 368.627C38.4845 368.547 37.3599 368.389 36.2703 368.168C35.6904 368.089 35.1457 367.994 34.6185 367.899C34.4603 368.358 34.3021 368.816 34.1616 369.275C34.759 369.496 35.1808 369.987 35.2862 370.556C36.7624 370.793 38.2385 370.92 39.7498 370.92C41.2084 370.92 42.6669 370.809 44.0904 370.588C44.1431 370.034 44.5473 369.56 45.1096 369.354C44.9339 369.069 44.7757 368.816 44.6176 368.563ZM44.7757 370.904C43.1063 371.204 41.4193 371.363 39.7147 371.363C38.0276 371.363 36.3582 371.22 34.7063 370.92C34.636 370.92 34.5833 370.904 34.513 370.904L32.826 372.217V373.261C37.2193 373.751 41.8937 373.767 46.287 373.292L46.3222 372.122L44.7757 370.904Z" fill="#00B388"/>
<path d="M39.748 351.735C40.9957 352.463 41.9271 353.523 42.7882 354.614C44.7212 357.113 45.2836 360.387 44.4752 363.328C44.2995 363.961 44.0535 364.625 43.7371 365.211C43.5966 365.511 43.4208 365.812 43.2275 366.096C43.5966 364.815 43.8426 363.55 43.9129 362.285C44.0535 358.631 42.7355 354.313 39.748 351.735Z" fill="#00B388"/>
<path d="M37.2874 355.531C37.6389 356.116 38.3418 356.196 38.869 355.753C38.8338 355.911 38.7108 356.069 38.5527 356.164C38.0431 356.496 37.2171 356.101 37.2874 355.531Z" fill="#00B388"/>
<path fill-rule="evenodd" clip-rule="evenodd" d="M3.40606 462.81L3.45878 464.613L0.963393 464.644C-0.495175 466.1 -2.16462 467.191 -4.04494 467.934L-4.11523 470.227L-2.77968 471.366C-0.98722 470.749 0.840383 470.781 2.70313 471.493L-3.85164 477.629C-1.54956 478.452 0.857955 478.958 3.30062 479.148C5.30395 479.306 7.32486 479.242 9.31062 478.974C12.3683 472.837 9.9784 466.052 3.40606 462.81ZM8.27381 479.638C7.34243 479.733 6.41106 479.78 5.47968 479.78C4.74161 479.78 4.00354 479.749 3.26547 479.701C2.14079 479.622 1.01611 479.464 -0.0734191 479.242C-0.653332 479.163 -1.1981 479.068 -1.72529 478.974C-1.88345 479.432 -2.04161 479.891 -2.18219 480.35C-1.58471 480.571 -1.16295 481.061 -1.05751 481.631C0.418627 481.868 1.89477 481.994 3.40606 481.994C4.86462 481.994 6.32319 481.884 7.74661 481.662C7.79933 481.109 8.20351 480.634 8.76585 480.429C8.59012 480.144 8.43197 479.891 8.27381 479.638ZM8.43196 481.979C6.76252 482.279 5.0755 482.437 3.37091 482.437C1.68389 482.437 0.0144472 482.295 -1.63742 481.994C-1.70772 481.994 -1.76044 481.979 -1.83073 481.979L-3.51775 483.291V484.335C0.875527 484.825 5.54998 484.841 9.94325 484.367L9.9784 483.196L8.43196 481.979Z" fill="#00B388"/>
<path d="M3.4082 462.81C4.65589 463.537 5.58727 464.597 6.44835 465.688C8.38139 468.187 8.94373 471.461 8.13537 474.403C7.95964 475.035 7.71361 475.7 7.3973 476.285C7.25671 476.585 7.08098 476.886 6.88768 477.171C7.25671 475.889 7.50274 474.624 7.57303 473.359C7.71361 469.706 6.39563 465.388 3.4082 462.81Z" fill="#00B388"/>
<path d="M0.94757 466.606C1.29903 467.191 2.00196 467.27 2.52915 466.827C2.494 466.985 2.37099 467.143 2.21283 467.238C1.70321 467.57 0.877278 467.175 0.94757 466.606Z" fill="#00B388"/>
<path fill-rule="evenodd" clip-rule="evenodd" d="M271.498 4.11414L271.551 5.91714L269.055 5.94877C267.597 7.40382 265.927 8.49511 264.047 9.23845L263.977 11.5317L265.312 12.6705C267.105 12.0537 268.932 12.0853 270.795 12.797L264.24 18.9335C266.542 19.756 268.95 20.2621 271.392 20.4519C273.396 20.61 275.417 20.5468 277.402 20.2779C280.46 14.1414 278.07 7.35637 271.498 4.11414ZM276.366 20.9421C275.434 21.037 274.503 21.0845 273.571 21.0845C272.833 21.0845 272.095 21.0529 271.357 21.0054C270.233 20.9263 269.108 20.7682 268.018 20.5468C267.438 20.4677 266.894 20.3728 266.367 20.2779C266.208 20.7365 266.05 21.1952 265.91 21.6539C266.507 21.8753 266.929 22.3656 267.034 22.9349C268.51 23.1722 269.987 23.2987 271.498 23.2987C272.956 23.2987 274.415 23.188 275.838 22.9666C275.891 22.413 276.295 21.9385 276.858 21.7329C276.682 21.4483 276.524 21.1952 276.366 20.9421ZM276.524 23.2829C274.854 23.5834 273.167 23.7415 271.463 23.7415C269.776 23.7415 268.106 23.5992 266.454 23.2987C266.384 23.2987 266.331 23.2829 266.261 23.2829L264.574 24.5956V25.6394C268.967 26.1297 273.642 26.1455 278.035 25.6711L278.07 24.5007L276.524 23.2829Z" fill="#00B388"/>
<path d="M271.496 4.11401C272.744 4.84154 273.675 5.9012 274.536 6.99249C276.469 9.49139 277.032 12.7653 276.223 15.707C276.048 16.3396 275.802 17.0039 275.485 17.5891C275.345 17.8896 275.169 18.1901 274.976 18.4748C275.345 17.1937 275.591 15.9284 275.661 14.6632C275.802 11.0097 274.484 6.69199 271.496 4.11401Z" fill="#00B388"/>
<path d="M269.035 7.90991C269.387 8.4951 270.09 8.57418 270.617 8.13133C270.582 8.28949 270.459 8.44765 270.301 8.54254C269.791 8.87468 268.965 8.47928 269.035 7.90991Z" fill="#00B388"/>
<path fill-rule="evenodd" clip-rule="evenodd" d="M273.554 113.817L273.607 115.62L271.112 115.652C269.653 117.107 267.984 118.198 266.103 118.941L266.033 121.235L267.369 122.373C269.161 121.757 270.989 121.788 272.852 122.5L266.297 128.637C268.599 129.459 271.006 129.965 273.449 130.155C275.452 130.313 277.473 130.25 279.459 129.981C282.517 123.844 280.127 117.059 273.554 113.817ZM278.422 130.645C277.491 130.74 276.559 130.787 275.628 130.787C274.89 130.787 274.152 130.756 273.414 130.708C272.289 130.629 271.165 130.471 270.075 130.25C269.495 130.171 268.95 130.076 268.423 129.981C268.265 130.44 268.107 130.898 267.966 131.357C268.564 131.578 268.985 132.069 269.091 132.638C270.567 132.875 272.043 133.002 273.554 133.002C275.013 133.002 276.472 132.891 277.895 132.67C277.948 132.116 278.352 131.642 278.914 131.436C278.739 131.151 278.58 130.898 278.422 130.645ZM278.58 132.986C276.911 133.286 275.224 133.445 273.519 133.445C271.832 133.445 270.163 133.302 268.511 133.002C268.441 133.002 268.388 132.986 268.318 132.986L266.631 134.299V135.342C271.024 135.833 275.698 135.849 280.092 135.374L280.127 134.204L278.58 132.986Z" fill="#00B388"/>
<path d="M273.553 113.817C274.8 114.544 275.732 115.604 276.593 116.695C278.526 119.194 279.088 122.468 278.28 125.41C278.104 126.043 277.858 126.707 277.542 127.292C277.401 127.592 277.226 127.893 277.032 128.178C277.401 126.897 277.647 125.631 277.718 124.366C277.858 120.713 276.54 116.395 273.553 113.817Z" fill="#00B388"/>
<path d="M271.092 117.613C271.444 118.198 272.146 118.277 272.674 117.834C272.639 117.992 272.516 118.15 272.357 118.245C271.848 118.577 271.022 118.182 271.092 117.613Z" fill="#00B388"/>
<path fill-rule="evenodd" clip-rule="evenodd" d="M272.181 223.52L272.234 225.323L269.739 225.355C268.28 226.81 266.611 227.901 264.73 228.644L264.66 230.938L265.996 232.076C267.788 231.46 269.616 231.491 271.479 232.203L264.924 238.339C267.226 239.162 269.633 239.668 272.076 239.858C274.079 240.016 276.1 239.953 278.086 239.684C281.144 233.547 278.754 226.762 272.181 223.52ZM277.049 240.348C276.118 240.443 275.186 240.49 274.255 240.49C273.517 240.49 272.779 240.459 272.041 240.411C270.916 240.332 269.792 240.174 268.702 239.953C268.122 239.874 267.577 239.779 267.05 239.684C266.892 240.142 266.734 240.601 266.593 241.06C267.191 241.281 267.612 241.771 267.718 242.341C269.194 242.578 270.67 242.705 272.181 242.705C273.64 242.705 275.099 242.594 276.522 242.372C276.575 241.819 276.979 241.344 277.541 241.139C277.366 240.854 277.207 240.601 277.049 240.348ZM277.207 242.689C275.538 242.989 273.851 243.147 272.146 243.147C270.459 243.147 268.79 243.005 267.138 242.705C267.068 242.705 267.015 242.689 266.945 242.689L265.258 244.001V245.045C269.651 245.536 274.325 245.551 278.719 245.077L278.754 243.907L277.207 242.689Z" fill="#00B388"/>
<path d="M272.18 223.52C273.427 224.248 274.359 225.307 275.22 226.398C277.153 228.897 277.715 232.171 276.907 235.113C276.731 235.746 276.485 236.41 276.169 236.995C276.028 237.296 275.852 237.596 275.659 237.881C276.028 236.6 276.274 235.334 276.345 234.069C276.485 230.416 275.167 226.098 272.18 223.52Z" fill="#00B388"/>
<path d="M269.719 227.316C270.071 227.901 270.773 227.98 271.301 227.537C271.265 227.695 271.142 227.854 270.984 227.948C270.475 228.281 269.649 227.885 269.719 227.316Z" fill="#00B388"/>
<path fill-rule="evenodd" clip-rule="evenodd" d="M261.9 333.223L261.953 335.026L259.458 335.058C257.999 336.513 256.33 337.604 254.449 338.347L254.379 340.641L255.714 341.779C257.507 341.163 259.335 341.194 261.197 341.906L254.643 348.043C256.945 348.865 259.352 349.371 261.795 349.561C263.798 349.719 265.819 349.656 267.805 349.387C270.862 343.25 268.473 336.465 261.9 333.223ZM266.768 350.051C265.837 350.146 264.905 350.193 263.974 350.193C263.236 350.193 262.498 350.162 261.76 350.114C260.635 350.035 259.51 349.877 258.421 349.656C257.841 349.577 257.296 349.482 256.769 349.387C256.611 349.846 256.453 350.304 256.312 350.763C256.909 350.984 257.331 351.475 257.437 352.044C258.913 352.281 260.389 352.408 261.9 352.408C263.359 352.408 264.817 352.297 266.241 352.076C266.293 351.522 266.698 351.048 267.26 350.842C267.084 350.557 266.926 350.304 266.768 350.051ZM266.926 352.392C265.257 352.692 263.57 352.851 261.865 352.851C260.178 352.851 258.509 352.708 256.857 352.408C256.786 352.408 256.734 352.392 256.663 352.392L254.976 353.705V354.748C259.37 355.239 264.044 355.255 268.437 354.78L268.473 353.61L266.926 352.392Z" fill="#00B388"/>
<path d="M261.896 333.223C263.144 333.951 264.076 335.01 264.937 336.102C266.87 338.601 267.432 341.874 266.624 344.816C266.448 345.449 266.202 346.113 265.886 346.698C265.745 346.999 265.569 347.299 265.376 347.584C265.745 346.303 265.991 345.038 266.061 343.772C266.202 340.119 264.884 335.801 261.896 333.223Z" fill="#00B388"/>
<path d="M259.436 337.019C259.787 337.604 260.49 337.683 261.017 337.24C260.982 337.399 260.859 337.557 260.701 337.652C260.191 337.984 259.366 337.588 259.436 337.019Z" fill="#00B388"/>
<path fill-rule="evenodd" clip-rule="evenodd" d="M272.861 442.926L272.914 444.729L270.418 444.761C268.96 446.216 267.29 447.307 265.41 448.05L265.34 450.344L266.675 451.482C268.468 450.866 270.295 450.897 272.158 451.609L265.603 457.745C267.906 458.568 270.313 459.074 272.756 459.264C274.759 459.422 276.78 459.359 278.766 459.09C281.823 452.953 279.433 446.168 272.861 442.926ZM277.729 459.754C276.798 459.849 275.866 459.896 274.935 459.896C274.197 459.896 273.459 459.865 272.721 459.817C271.596 459.738 270.471 459.58 269.382 459.359C268.802 459.28 268.257 459.185 267.73 459.09C267.572 459.548 267.413 460.007 267.273 460.466C267.87 460.687 268.292 461.177 268.398 461.747C269.874 461.984 271.35 462.111 272.861 462.111C274.32 462.111 275.778 462 277.202 461.778C277.254 461.225 277.659 460.75 278.221 460.545C278.045 460.26 277.887 460.007 277.729 459.754ZM277.887 462.095C276.218 462.395 274.531 462.553 272.826 462.553C271.139 462.553 269.47 462.411 267.818 462.111C267.747 462.111 267.695 462.095 267.624 462.095L265.937 463.407V464.451C270.331 464.942 275.005 464.957 279.398 464.483L279.433 463.313L277.887 462.095Z" fill="#00B388"/>
<path d="M272.865 442.926C274.113 443.654 275.044 444.713 275.905 445.805C277.838 448.304 278.401 451.577 277.592 454.519C277.417 455.152 277.171 455.816 276.854 456.401C276.714 456.702 276.538 457.002 276.345 457.287C276.714 456.006 276.96 454.741 277.03 453.475C277.171 449.822 275.853 445.504 272.865 442.926Z" fill="#00B388"/>
<path d="M270.405 446.722C270.756 447.307 271.459 447.386 271.986 446.943C271.951 447.102 271.828 447.26 271.67 447.355C271.16 447.687 270.334 447.291 270.405 446.722Z" fill="#00B388"/>
<path fill-rule="evenodd" clip-rule="evenodd" d="M205.674 59.6512L205.726 61.4542L203.231 61.4859C201.772 62.9409 200.103 64.0322 198.223 64.7756L198.152 67.0689L199.488 68.2076C201.28 67.5908 203.108 67.6224 204.971 68.3341L198.416 74.4706C200.718 75.2931 203.126 75.7992 205.568 75.989C207.572 76.1471 209.592 76.0839 211.578 75.815C214.636 69.6785 212.246 62.8935 205.674 59.6512ZM210.541 76.4793C209.61 76.5742 208.679 76.6216 207.747 76.6216C207.009 76.6216 206.271 76.59 205.533 76.5425C204.408 76.4634 203.284 76.3053 202.194 76.0839C201.614 76.0048 201.069 75.9099 200.542 75.815C200.384 76.2736 200.226 76.7323 200.085 77.191C200.683 77.4124 201.105 77.9027 201.21 78.472C202.686 78.7093 204.162 78.8358 205.674 78.8358C207.132 78.8358 208.591 78.7251 210.014 78.5037C210.067 77.9501 210.471 77.4757 211.033 77.27C210.858 76.9854 210.7 76.7323 210.541 76.4793ZM210.7 78.82C209.03 79.1205 207.343 79.2787 205.638 79.2787C203.951 79.2787 202.282 79.1363 200.63 78.8358C200.56 78.8358 200.507 78.82 200.437 78.82L198.75 80.1327V81.1765C203.143 81.6668 207.818 81.6827 212.211 81.2082L212.246 80.0378L210.7 78.82Z" fill="#00B388"/>
<path d="M205.672 59.6511C206.92 60.3786 207.851 61.4383 208.712 62.5296C210.645 65.0285 211.207 68.3024 210.399 71.2441C210.223 71.8767 209.977 72.541 209.661 73.1262C209.52 73.4267 209.345 73.7272 209.151 74.0119C209.52 72.7308 209.766 71.4655 209.837 70.2003C209.977 66.5468 208.659 62.2291 205.672 59.6511Z" fill="#00B388"/>
<path d="M203.211 63.4469C203.563 64.0321 204.266 64.1112 204.793 63.6683C204.758 63.8265 204.635 63.9846 204.477 64.0795C203.967 64.4117 203.141 64.0163 203.211 63.4469Z" fill="#00B388"/>
<path fill-rule="evenodd" clip-rule="evenodd" d="M205.674 178.953L205.726 180.756L203.231 180.788C201.772 182.243 200.103 183.334 198.223 184.077L198.152 186.371L199.488 187.509C201.28 186.893 203.108 186.924 204.971 187.636L198.416 193.773C200.718 194.595 203.126 195.101 205.568 195.291C207.572 195.449 209.592 195.386 211.578 195.117C214.636 188.98 212.246 182.195 205.674 178.953ZM210.541 195.781C209.61 195.876 208.679 195.923 207.747 195.923C207.009 195.923 206.271 195.892 205.533 195.844C204.408 195.765 203.284 195.607 202.194 195.386C201.614 195.307 201.069 195.212 200.542 195.117C200.384 195.576 200.226 196.034 200.085 196.493C200.683 196.714 201.105 197.205 201.21 197.774C202.686 198.011 204.162 198.138 205.674 198.138C207.132 198.138 208.591 198.027 210.014 197.806C210.067 197.252 210.471 196.778 211.033 196.572C210.858 196.287 210.7 196.034 210.541 195.781ZM210.7 198.122C209.03 198.422 207.343 198.581 205.638 198.581C203.951 198.581 202.282 198.438 200.63 198.138C200.56 198.138 200.507 198.122 200.437 198.122L198.75 199.435V200.478C203.143 200.969 207.818 200.985 212.211 200.51L212.246 199.34L210.7 198.122Z" fill="#00B388"/>
<path d="M205.672 178.953C206.92 179.681 207.851 180.74 208.712 181.832C210.645 184.33 211.207 187.604 210.399 190.546C210.223 191.179 209.977 191.843 209.661 192.428C209.52 192.729 209.345 193.029 209.151 193.314C209.52 192.033 209.766 190.768 209.837 189.502C209.977 185.849 208.659 181.531 205.672 178.953Z" fill="#00B388"/>
<path d="M203.211 182.749C203.563 183.334 204.266 183.413 204.793 182.97C204.758 183.129 204.635 183.287 204.477 183.382C203.967 183.714 203.141 183.318 203.211 182.749Z" fill="#00B388"/>
<path fill-rule="evenodd" clip-rule="evenodd" d="M205.674 298.255L205.726 300.058L203.231 300.09C201.772 301.545 200.103 302.636 198.223 303.379L198.152 305.673L199.488 306.811C201.28 306.195 203.108 306.226 204.971 306.938L198.416 313.075C200.718 313.897 203.126 314.403 205.568 314.593C207.572 314.751 209.592 314.688 211.578 314.419C214.636 308.282 212.246 301.497 205.674 298.255ZM210.541 315.083C209.61 315.178 208.679 315.225 207.747 315.225C207.009 315.225 206.271 315.194 205.533 315.146C204.408 315.067 203.284 314.909 202.194 314.688C201.614 314.609 201.069 314.514 200.542 314.419C200.384 314.878 200.226 315.336 200.085 315.795C200.683 316.016 201.105 316.507 201.21 317.076C202.686 317.313 204.162 317.44 205.674 317.44C207.132 317.44 208.591 317.329 210.014 317.108C210.067 316.554 210.471 316.08 211.033 315.874C210.858 315.589 210.7 315.336 210.541 315.083ZM210.7 317.424C209.03 317.724 207.343 317.883 205.638 317.883C203.951 317.883 202.282 317.74 200.63 317.44C200.56 317.44 200.507 317.424 200.437 317.424L198.75 318.737V319.78C203.143 320.271 207.818 320.287 212.211 319.812L212.246 318.642L210.7 317.424Z" fill="#00B388"/>
<path d="M205.672 298.255C206.92 298.983 207.851 300.042 208.712 301.134C210.645 303.633 211.207 306.906 210.399 309.848C210.223 310.481 209.977 311.145 209.661 311.73C209.52 312.031 209.345 312.331 209.151 312.616C209.52 311.335 209.766 310.07 209.837 308.804C209.977 305.151 208.659 300.833 205.672 298.255Z" fill="#00B388"/>
<path d="M203.211 302.051C203.563 302.636 204.266 302.715 204.793 302.272C204.758 302.431 204.635 302.589 204.477 302.684C203.967 303.016 203.141 302.62 203.211 302.051Z" fill="#00B388"/>
<path fill-rule="evenodd" clip-rule="evenodd" d="M262.578 388.075L262.631 389.878L260.135 389.909C258.677 391.364 257.007 392.456 255.127 393.199L255.057 395.492L256.392 396.631C258.185 396.014 260.012 396.046 261.875 396.758L255.32 402.894C257.622 403.717 260.03 404.223 262.472 404.412C264.476 404.571 266.497 404.507 268.482 404.238C271.54 398.102 269.15 391.317 262.578 388.075ZM267.446 404.903C266.514 404.998 265.583 405.045 264.652 405.045C263.913 405.045 263.175 405.013 262.437 404.966C261.313 404.887 260.188 404.729 259.098 404.507C258.519 404.428 257.974 404.333 257.447 404.238C257.288 404.697 257.13 405.156 256.99 405.614C257.587 405.836 258.009 406.326 258.114 406.896C259.591 407.133 261.067 407.259 262.578 407.259C264.036 407.259 265.495 407.149 266.918 406.927C266.971 406.374 267.375 405.899 267.938 405.694C267.762 405.409 267.604 405.156 267.446 404.903ZM267.604 407.243C265.934 407.544 264.247 407.702 262.543 407.702C260.856 407.702 259.186 407.56 257.534 407.259C257.464 407.259 257.411 407.243 257.341 407.243L255.654 408.556V409.6C260.047 410.09 264.722 410.106 269.115 409.632L269.15 408.461L267.604 407.243Z" fill="#00B388"/>
<path d="M262.578 388.074C263.826 388.802 264.757 389.862 265.618 390.953C267.551 393.452 268.114 396.726 267.305 399.667C267.13 400.3 266.884 400.964 266.567 401.55C266.427 401.85 266.251 402.151 266.058 402.435C266.427 401.154 266.673 399.889 266.743 398.624C266.884 394.97 265.566 390.652 262.578 388.074Z" fill="#00B388"/>
<path d="M260.117 391.87C260.469 392.456 261.172 392.535 261.699 392.092C261.664 392.25 261.541 392.408 261.383 392.503C260.873 392.835 260.047 392.44 260.117 391.87Z" fill="#00B388"/>
</g>
</g>
</svg>
